ISO-10303-21;
HEADER;
/* Generated by software containing ST-Developer
 * from STEP Tools, Inc. (www.steptools.com) 
 */

FILE_DESCRIPTION(
/* description */ (''),
/* implementation_level */ '2;1');

FILE_NAME(
/* name */ 'Spaceship_Interceptor.step',
/* time_stamp */ '2026-09-18T22:00:44+02:00',
/* author */ (''),
/* organization */ (''),
/* preprocessor_version */ 'ST-DEVELOPER v20.1',
/* originating_system */ 'Autodesk Translation Framework v15.8.0.0',
/* authorisation */ '');

FILE_SCHEMA (('AUTOMOTIVE_DESIGN { 1 0 10303 214 3 1 1 }'));
ENDSEC;

DATA;
#10=MECHANICAL_DESIGN_GEOMETRIC_PRESENTATION_REPRESENTATION('',(#13),#1879);
#11=SHAPE_REPRESENTATION_RELATIONSHIP('SRR','None',#1886,#12);
#12=ADVANCED_BREP_SHAPE_REPRESENTATION('',(#14),#1878);
#13=STYLED_ITEM('',(#1895),#14);
#14=MANIFOLD_SOLID_BREP('Fuselage_Main',#1159);
#15=FACE_BOUND('',#130,.T.);
#16=FACE_BOUND('',#131,.T.);
#17=FACE_BOUND('',#150,.T.);
#18=PLANE('',#1176);
#19=PLANE('',#1180);
#20=PLANE('',#1183);
#21=PLANE('',#1184);
#22=PLANE('',#1193);
#23=PLANE('',#1194);
#24=PLANE('',#1195);
#25=PLANE('',#1196);
#26=PLANE('',#1197);
#27=PLANE('',#1199);
#28=PLANE('',#1205);
#29=PLANE('',#1208);
#30=PLANE('',#1209);
#31=PLANE('',#1210);
#32=PLANE('',#1211);
#33=PLANE('',#1212);
#34=PLANE('',#1213);
#35=PLANE('',#1214);
#36=PLANE('',#1215);
#37=PLANE('',#1216);
#38=PLANE('',#1217);
#39=PLANE('',#1218);
#40=PLANE('',#1219);
#41=PLANE('',#1220);
#42=PLANE('',#1221);
#43=PLANE('',#1222);
#44=PLANE('',#1223);
#45=PLANE('',#1224);
#46=PLANE('',#1225);
#47=PLANE('',#1226);
#48=PLANE('',#1227);
#49=PLANE('',#1228);
#50=PLANE('',#1229);
#51=PLANE('',#1230);
#52=PLANE('',#1231);
#53=PLANE('',#1232);
#54=PLANE('',#1233);
#55=PLANE('',#1234);
#56=PLANE('',#1235);
#57=PLANE('',#1236);
#58=PLANE('',#1237);
#59=PLANE('',#1238);
#60=PLANE('',#1239);
#61=PLANE('',#1240);
#62=PLANE('',#1241);
#63=PLANE('',#1242);
#64=PLANE('',#1243);
#65=PLANE('',#1244);
#66=PLANE('',#1245);
#67=PLANE('',#1246);
#68=PLANE('',#1247);
#69=FACE_OUTER_BOUND('',#128,.T.);
#70=FACE_OUTER_BOUND('',#129,.T.);
#71=FACE_OUTER_BOUND('',#132,.T.);
#72=FACE_OUTER_BOUND('',#133,.T.);
#73=FACE_OUTER_BOUND('',#134,.T.);
#74=FACE_OUTER_BOUND('',#135,.T.);
#75=FACE_OUTER_BOUND('',#136,.T.);
#76=FACE_OUTER_BOUND('',#137,.T.);
#77=FACE_OUTER_BOUND('',#138,.T.);
#78=FACE_OUTER_BOUND('',#139,.T.);
#79=FACE_OUTER_BOUND('',#140,.T.);
#80=FACE_OUTER_BOUND('',#141,.T.);
#81=FACE_OUTER_BOUND('',#142,.T.);
#82=FACE_OUTER_BOUND('',#143,.T.);
#83=FACE_OUTER_BOUND('',#144,.T.);
#84=FACE_OUTER_BOUND('',#145,.T.);
#85=FACE_OUTER_BOUND('',#146,.T.);
#86=FACE_OUTER_BOUND('',#147,.T.);
#87=FACE_OUTER_BOUND('',#148,.T.);
#88=FACE_OUTER_BOUND('',#149,.T.);
#89=FACE_OUTER_BOUND('',#151,.T.);
#90=FACE_OUTER_BOUND('',#152,.T.);
#91=FACE_OUTER_BOUND('',#153,.T.);
#92=FACE_OUTER_BOUND('',#154,.T.);
#93=FACE_OUTER_BOUND('',#155,.T.);
#94=FACE_OUTER_BOUND('',#156,.T.);
#95=FACE_OUTER_BOUND('',#157,.T.);
#96=FACE_OUTER_BOUND('',#158,.T.);
#97=FACE_OUTER_BOUND('',#159,.T.);
#98=FACE_OUTER_BOUND('',#160,.T.);
#99=FACE_OUTER_BOUND('',#161,.T.);
#100=FACE_OUTER_BOUND('',#162,.T.);
#101=FACE_OUTER_BOUND('',#163,.T.);
#102=FACE_OUTER_BOUND('',#164,.T.);
#103=FACE_OUTER_BOUND('',#165,.T.);
#104=FACE_OUTER_BOUND('',#166,.T.);
#105=FACE_OUTER_BOUND('',#167,.T.);
#106=FACE_OUTER_BOUND('',#168,.T.);
#107=FACE_OUTER_BOUND('',#169,.T.);
#108=FACE_OUTER_BOUND('',#170,.T.);
#109=FACE_OUTER_BOUND('',#171,.T.);
#110=FACE_OUTER_BOUND('',#172,.T.);
#111=FACE_OUTER_BOUND('',#173,.T.);
#112=FACE_OUTER_BOUND('',#174,.T.);
#113=FACE_OUTER_BOUND('',#175,.T.);
#114=FACE_OUTER_BOUND('',#176,.T.);
#115=FACE_OUTER_BOUND('',#177,.T.);
#116=FACE_OUTER_BOUND('',#178,.T.);
#117=FACE_OUTER_BOUND('',#179,.T.);
#118=FACE_OUTER_BOUND('',#180,.T.);
#119=FACE_OUTER_BOUND('',#181,.T.);
#120=FACE_OUTER_BOUND('',#182,.T.);
#121=FACE_OUTER_BOUND('',#183,.T.);
#122=FACE_OUTER_BOUND('',#184,.T.);
#123=FACE_OUTER_BOUND('',#185,.T.);
#124=FACE_OUTER_BOUND('',#186,.T.);
#125=FACE_OUTER_BOUND('',#187,.T.);
#126=FACE_OUTER_BOUND('',#188,.T.);
#127=FACE_OUTER_BOUND('',#189,.T.);
#128=EDGE_LOOP('',(#768,#769,#770,#771));
#129=EDGE_LOOP('',(#772,#773,#774,#775,#776,#777,#778,#779,#780,#781,#782,
#783,#784,#785));
#130=EDGE_LOOP('',(#786));
#131=EDGE_LOOP('',(#787));
#132=EDGE_LOOP('',(#788,#789,#790,#791,#792,#793,#794,#795));
#133=EDGE_LOOP('',(#796,#797,#798,#799));
#134=EDGE_LOOP('',(#800,#801,#802,#803));
#135=EDGE_LOOP('',(#804,#805));
#136=EDGE_LOOP('',(#806,#807,#808,#809));
#137=EDGE_LOOP('',(#810,#811,#812,#813));
#138=EDGE_LOOP('',(#814,#815,#816,#817));
#139=EDGE_LOOP('',(#818));
#140=EDGE_LOOP('',(#819,#820));
#141=EDGE_LOOP('',(#821,#822,#823,#824,#825,#826,#827,#828,#829,#830));
#142=EDGE_LOOP('',(#831,#832,#833,#834,#835,#836,#837,#838,#839,#840));
#143=EDGE_LOOP('',(#841,#842));
#144=EDGE_LOOP('',(#843,#844));
#145=EDGE_LOOP('',(#845,#846,#847,#848));
#146=EDGE_LOOP('',(#849,#850,#851,#852));
#147=EDGE_LOOP('',(#853));
#148=EDGE_LOOP('',(#854,#855,#856,#857));
#149=EDGE_LOOP('',(#858,#859,#860,#861,#862,#863,#864,#865,#866,#867,#868,
#869,#870,#871,#872,#873,#874,#875,#876,#877,#878,#879,#880,#881,#882,#883,
#884,#885,#886,#887));
#150=EDGE_LOOP('',(#888,#889,#890,#891,#892,#893));
#151=EDGE_LOOP('',(#894,#895,#896,#897,#898,#899,#900,#901,#902,#903));
#152=EDGE_LOOP('',(#904,#905,#906,#907,#908,#909,#910,#911,#912,#913));
#153=EDGE_LOOP('',(#914,#915,#916,#917));
#154=EDGE_LOOP('',(#918,#919,#920,#921));
#155=EDGE_LOOP('',(#922,#923,#924,#925));
#156=EDGE_LOOP('',(#926,#927,#928,#929));
#157=EDGE_LOOP('',(#930,#931,#932,#933,#934,#935,#936,#937));
#158=EDGE_LOOP('',(#938,#939,#940,#941));
#159=EDGE_LOOP('',(#942,#943,#944,#945));
#160=EDGE_LOOP('',(#946,#947,#948,#949));
#161=EDGE_LOOP('',(#950,#951,#952,#953));
#162=EDGE_LOOP('',(#954,#955,#956,#957));
#163=EDGE_LOOP('',(#958,#959,#960,#961,#962,#963));
#164=EDGE_LOOP('',(#964,#965,#966,#967));
#165=EDGE_LOOP('',(#968,#969,#970,#971));
#166=EDGE_LOOP('',(#972,#973,#974,#975));
#167=EDGE_LOOP('',(#976,#977,#978,#979,#980,#981));
#168=EDGE_LOOP('',(#982,#983,#984,#985,#986,#987,#988,#989));
#169=EDGE_LOOP('',(#990,#991,#992,#993));
#170=EDGE_LOOP('',(#994,#995,#996,#997,#998,#999));
#171=EDGE_LOOP('',(#1000,#1001,#1002,#1003));
#172=EDGE_LOOP('',(#1004,#1005,#1006,#1007));
#173=EDGE_LOOP('',(#1008,#1009,#1010,#1011));
#174=EDGE_LOOP('',(#1012,#1013,#1014,#1015,#1016,#1017));
#175=EDGE_LOOP('',(#1018,#1019,#1020,#1021,#1022,#1023,#1024,#1025));
#176=EDGE_LOOP('',(#1026,#1027,#1028,#1029));
#177=EDGE_LOOP('',(#1030,#1031,#1032,#1033));
#178=EDGE_LOOP('',(#1034,#1035,#1036,#1037));
#179=EDGE_LOOP('',(#1038,#1039,#1040,#1041));
#180=EDGE_LOOP('',(#1042,#1043,#1044,#1045));
#181=EDGE_LOOP('',(#1046,#1047,#1048,#1049));
#182=EDGE_LOOP('',(#1050,#1051,#1052,#1053,#1054,#1055));
#183=EDGE_LOOP('',(#1056,#1057,#1058,#1059));
#184=EDGE_LOOP('',(#1060,#1061,#1062,#1063));
#185=EDGE_LOOP('',(#1064,#1065,#1066,#1067,#1068,#1069,#1070,#1071));
#186=EDGE_LOOP('',(#1072,#1073,#1074,#1075));
#187=EDGE_LOOP('',(#1076,#1077,#1078,#1079,#1080,#1081,#1082,#1083));
#188=EDGE_LOOP('',(#1084,#1085,#1086,#1087));
#189=EDGE_LOOP('',(#1088,#1089,#1090,#1091));
#190=CIRCLE('',#1174,280.);
#191=CIRCLE('',#1175,280.);
#192=CIRCLE('',#1177,280.);
#193=CIRCLE('',#1178,360.);
#194=CIRCLE('',#1179,360.);
#195=CIRCLE('',#1182,280.);
#196=CIRCLE('',#1185,360.);
#197=CIRCLE('',#1187,360.);
#198=CIRCLE('',#1189,360.);
#199=CIRCLE('',#1191,360.);
#200=CIRCLE('',#1192,360.);
#201=CIRCLE('',#1198,360.);
#202=CIRCLE('',#1200,360.);
#203=CIRCLE('',#1202,360.);
#204=CIRCLE('',#1204,360.);
#205=CIRCLE('',#1207,360.);
#206=LINE('',#1550,#352);
#207=LINE('',#1554,#353);
#208=LINE('',#1558,#354);
#209=LINE('',#1560,#355);
#210=LINE('',#1562,#356);
#211=LINE('',#1564,#357);
#212=LINE('',#1566,#358);
#213=LINE('',#1568,#359);
#214=LINE('',#1570,#360);
#215=LINE('',#1572,#361);
#216=LINE('',#1574,#362);
#217=LINE('',#1576,#363);
#218=LINE('',#1580,#364);
#219=LINE('',#1581,#365);
#220=LINE('',#1588,#366);
#221=LINE('',#1590,#367);
#222=LINE('',#1592,#368);
#223=LINE('',#1594,#369);
#224=LINE('',#1596,#370);
#225=LINE('',#1597,#371);
#226=LINE('',#1600,#372);
#227=LINE('',#1603,#373);
#228=LINE('',#1606,#374);
#229=LINE('',#1607,#375);
#230=LINE('',#1611,#376);
#231=LINE('',#1615,#377);
#232=LINE('',#1619,#378);
#233=LINE('',#1622,#379);
#234=LINE('',#1626,#380);
#235=LINE('',#1630,#381);
#236=LINE('',#1634,#382);
#237=LINE('',#1637,#383);
#238=LINE('',#1639,#384);
#239=LINE('',#1641,#385);
#240=LINE('',#1643,#386);
#241=LINE('',#1644,#387);
#242=LINE('',#1645,#388);
#243=LINE('',#1647,#389);
#244=LINE('',#1649,#390);
#245=LINE('',#1651,#391);
#246=LINE('',#1653,#392);
#247=LINE('',#1655,#393);
#248=LINE('',#1656,#394);
#249=LINE('',#1660,#395);
#250=LINE('',#1665,#396);
#251=LINE('',#1669,#397);
#252=LINE('',#1673,#398);
#253=LINE('',#1676,#399);
#254=LINE('',#1680,#400);
#255=LINE('',#1682,#401);
#256=LINE('',#1685,#402);
#257=LINE('',#1687,#403);
#258=LINE('',#1688,#404);
#259=LINE('',#1690,#405);
#260=LINE('',#1692,#406);
#261=LINE('',#1693,#407);
#262=LINE('',#1695,#408);
#263=LINE('',#1697,#409);
#264=LINE('',#1699,#410);
#265=LINE('',#1701,#411);
#266=LINE('',#1703,#412);
#267=LINE('',#1705,#413);
#268=LINE('',#1707,#414);
#269=LINE('',#1709,#415);
#270=LINE('',#1711,#416);
#271=LINE('',#1712,#417);
#272=LINE('',#1713,#418);
#273=LINE('',#1716,#419);
#274=LINE('',#1718,#420);
#275=LINE('',#1720,#421);
#276=LINE('',#1722,#422);
#277=LINE('',#1724,#423);
#278=LINE('',#1725,#424);
#279=LINE('',#1728,#425);
#280=LINE('',#1730,#426);
#281=LINE('',#1732,#427);
#282=LINE('',#1734,#428);
#283=LINE('',#1735,#429);
#284=LINE('',#1738,#430);
#285=LINE('',#1740,#431);
#286=LINE('',#1742,#432);
#287=LINE('',#1744,#433);
#288=LINE('',#1745,#434);
#289=LINE('',#1747,#435);
#290=LINE('',#1749,#436);
#291=LINE('',#1750,#437);
#292=LINE('',#1753,#438);
#293=LINE('',#1755,#439);
#294=LINE('',#1757,#440);
#295=LINE('',#1759,#441);
#296=LINE('',#1761,#442);
#297=LINE('',#1766,#443);
#298=LINE('',#1768,#444);
#299=LINE('',#1770,#445);
#300=LINE('',#1771,#446);
#301=LINE('',#1774,#447);
#302=LINE('',#1776,#448);
#303=LINE('',#1778,#449);
#304=LINE('',#1780,#450);
#305=LINE('',#1781,#451);
#306=LINE('',#1784,#452);
#307=LINE('',#1786,#453);
#308=LINE('',#1787,#454);
#309=LINE('',#1790,#455);
#310=LINE('',#1791,#456);
#311=LINE('',#1793,#457);
#312=LINE('',#1796,#458);
#313=LINE('',#1797,#459);
#314=LINE('',#1799,#460);
#315=LINE('',#1800,#461);
#316=LINE('',#1801,#462);
#317=LINE('',#1805,#463);
#318=LINE('',#1807,#464);
#319=LINE('',#1809,#465);
#320=LINE('',#1810,#466);
#321=LINE('',#1813,#467);
#322=LINE('',#1815,#468);
#323=LINE('',#1817,#469);
#324=LINE('',#1819,#470);
#325=LINE('',#1820,#471);
#326=LINE('',#1823,#472);
#327=LINE('',#1825,#473);
#328=LINE('',#1826,#474);
#329=LINE('',#1829,#475);
#330=LINE('',#1830,#476);
#331=LINE('',#1832,#477);
#332=LINE('',#1835,#478);
#333=LINE('',#1836,#479);
#334=LINE('',#1838,#480);
#335=LINE('',#1839,#481);
#336=LINE('',#1842,#482);
#337=LINE('',#1844,#483);
#338=LINE('',#1845,#484);
#339=LINE('',#1848,#485);
#340=LINE('',#1849,#486);
#341=LINE('',#1852,#487);
#342=LINE('',#1853,#488);
#343=LINE('',#1856,#489);
#344=LINE('',#1857,#490);
#345=LINE('',#1860,#491);
#346=LINE('',#1861,#492);
#347=LINE('',#1863,#493);
#348=LINE('',#1866,#494);
#349=LINE('',#1867,#495);
#350=LINE('',#1872,#496);
#351=LINE('',#1874,#497);
#352=VECTOR('',#1252,10.);
#353=VECTOR('',#1255,10.);
#354=VECTOR('',#1260,10.);
#355=VECTOR('',#1261,10.);
#356=VECTOR('',#1262,10.);
#357=VECTOR('',#1263,10.);
#358=VECTOR('',#1264,10.);
#359=VECTOR('',#1265,10.);
#360=VECTOR('',#1266,10.);
#361=VECTOR('',#1267,10.);
#362=VECTOR('',#1268,10.);
#363=VECTOR('',#1269,10.);
#364=VECTOR('',#1272,10.);
#365=VECTOR('',#1273,10.);
#366=VECTOR('',#1280,10.);
#367=VECTOR('',#1281,10.);
#368=VECTOR('',#1282,10.);
#369=VECTOR('',#1283,10.);
#370=VECTOR('',#1284,10.);
#371=VECTOR('',#1285,10.);
#372=VECTOR('',#1288,10.);
#373=VECTOR('',#1291,10.);
#374=VECTOR('',#1294,10.);
#375=VECTOR('',#1295,10.);
#376=VECTOR('',#1298,10.);
#377=VECTOR('',#1303,360.);
#378=VECTOR('',#1308,10.);
#379=VECTOR('',#1311,10.);
#380=VECTOR('',#1314,10.);
#381=VECTOR('',#1317,10.);
#382=VECTOR('',#1324,10.);
#383=VECTOR('',#1327,10.);
#384=VECTOR('',#1328,10.);
#385=VECTOR('',#1329,10.);
#386=VECTOR('',#1330,10.);
#387=VECTOR('',#1331,10.);
#388=VECTOR('',#1332,10.);
#389=VECTOR('',#1335,10.);
#390=VECTOR('',#1336,10.);
#391=VECTOR('',#1337,10.);
#392=VECTOR('',#1338,10.);
#393=VECTOR('',#1339,10.);
#394=VECTOR('',#1340,10.);
#395=VECTOR('',#1343,10.);
#396=VECTOR('',#1348,10.);
#397=VECTOR('',#1353,360.);
#398=VECTOR('',#1358,10.);
#399=VECTOR('',#1361,10.);
#400=VECTOR('',#1366,10.);
#401=VECTOR('',#1367,10.);
#402=VECTOR('',#1372,10.);
#403=VECTOR('',#1373,10.);
#404=VECTOR('',#1374,10.);
#405=VECTOR('',#1375,10.);
#406=VECTOR('',#1376,10.);
#407=VECTOR('',#1377,10.);
#408=VECTOR('',#1378,10.);
#409=VECTOR('',#1379,10.);
#410=VECTOR('',#1380,10.);
#411=VECTOR('',#1381,10.);
#412=VECTOR('',#1382,10.);
#413=VECTOR('',#1383,10.);
#414=VECTOR('',#1384,10.);
#415=VECTOR('',#1385,10.);
#416=VECTOR('',#1386,10.);
#417=VECTOR('',#1387,10.);
#418=VECTOR('',#1388,10.);
#419=VECTOR('',#1389,10.);
#420=VECTOR('',#1390,10.);
#421=VECTOR('',#1391,10.);
#422=VECTOR('',#1392,10.);
#423=VECTOR('',#1393,10.);
#424=VECTOR('',#1394,10.);
#425=VECTOR('',#1397,10.);
#426=VECTOR('',#1398,10.);
#427=VECTOR('',#1399,10.);
#428=VECTOR('',#1400,10.);
#429=VECTOR('',#1401,10.);
#430=VECTOR('',#1404,10.);
#431=VECTOR('',#1405,10.);
#432=VECTOR('',#1406,10.);
#433=VECTOR('',#1407,10.);
#434=VECTOR('',#1408,10.);
#435=VECTOR('',#1411,10.);
#436=VECTOR('',#1414,10.);
#437=VECTOR('',#1415,10.);
#438=VECTOR('',#1420,10.);
#439=VECTOR('',#1423,10.);
#440=VECTOR('',#1426,10.);
#441=VECTOR('',#1429,10.);
#442=VECTOR('',#1432,10.);
#443=VECTOR('',#1437,10.);
#444=VECTOR('',#1438,10.);
#445=VECTOR('',#1439,10.);
#446=VECTOR('',#1440,10.);
#447=VECTOR('',#1443,10.);
#448=VECTOR('',#1444,10.);
#449=VECTOR('',#1445,10.);
#450=VECTOR('',#1446,10.);
#451=VECTOR('',#1447,10.);
#452=VECTOR('',#1450,10.);
#453=VECTOR('',#1451,10.);
#454=VECTOR('',#1452,10.);
#455=VECTOR('',#1455,10.);
#456=VECTOR('',#1456,10.);
#457=VECTOR('',#1459,10.);
#458=VECTOR('',#1462,10.);
#459=VECTOR('',#1463,10.);
#460=VECTOR('',#1466,10.);
#461=VECTOR('',#1467,10.);
#462=VECTOR('',#1468,10.);
#463=VECTOR('',#1471,10.);
#464=VECTOR('',#1472,10.);
#465=VECTOR('',#1473,10.);
#466=VECTOR('',#1474,10.);
#467=VECTOR('',#1477,10.);
#468=VECTOR('',#1478,10.);
#469=VECTOR('',#1479,10.);
#470=VECTOR('',#1480,10.);
#471=VECTOR('',#1481,10.);
#472=VECTOR('',#1484,10.);
#473=VECTOR('',#1485,10.);
#474=VECTOR('',#1486,10.);
#475=VECTOR('',#1489,10.);
#476=VECTOR('',#1490,10.);
#477=VECTOR('',#1493,10.);
#478=VECTOR('',#1496,10.);
#479=VECTOR('',#1497,10.);
#480=VECTOR('',#1500,10.);
#481=VECTOR('',#1501,10.);
#482=VECTOR('',#1504,10.);
#483=VECTOR('',#1505,10.);
#484=VECTOR('',#1506,10.);
#485=VECTOR('',#1509,10.);
#486=VECTOR('',#1510,10.);
#487=VECTOR('',#1513,10.);
#488=VECTOR('',#1514,10.);
#489=VECTOR('',#1517,10.);
#490=VECTOR('',#1518,10.);
#491=VECTOR('',#1521,10.);
#492=VECTOR('',#1522,10.);
#493=VECTOR('',#1525,10.);
#494=VECTOR('',#1530,10.);
#495=VECTOR('',#1531,10.);
#496=VECTOR('',#1540,10.);
#497=VECTOR('',#1543,10.);
#498=VERTEX_POINT('',#1548);
#499=VERTEX_POINT('',#1549);
#500=VERTEX_POINT('',#1551);
#501=VERTEX_POINT('',#1553);
#502=VERTEX_POINT('',#1557);
#503=VERTEX_POINT('',#1559);
#504=VERTEX_POINT('',#1561);
#505=VERTEX_POINT('',#1563);
#506=VERTEX_POINT('',#1565);
#507=VERTEX_POINT('',#1567);
#508=VERTEX_POINT('',#1569);
#509=VERTEX_POINT('',#1571);
#510=VERTEX_POINT('',#1573);
#511=VERTEX_POINT('',#1575);
#512=VERTEX_POINT('',#1577);
#513=VERTEX_POINT('',#1579);
#514=VERTEX_POINT('',#1582);
#515=VERTEX_POINT('',#1584);
#516=VERTEX_POINT('',#1587);
#517=VERTEX_POINT('',#1589);
#518=VERTEX_POINT('',#1591);
#519=VERTEX_POINT('',#1593);
#520=VERTEX_POINT('',#1595);
#521=VERTEX_POINT('',#1599);
#522=VERTEX_POINT('',#1601);
#523=VERTEX_POINT('',#1605);
#524=VERTEX_POINT('',#1609);
#525=VERTEX_POINT('',#1610);
#526=VERTEX_POINT('',#1614);
#527=VERTEX_POINT('',#1618);
#528=VERTEX_POINT('',#1620);
#529=VERTEX_POINT('',#1624);
#530=VERTEX_POINT('',#1625);
#531=VERTEX_POINT('',#1627);
#532=VERTEX_POINT('',#1629);
#533=VERTEX_POINT('',#1636);
#534=VERTEX_POINT('',#1638);
#535=VERTEX_POINT('',#1640);
#536=VERTEX_POINT('',#1642);
#537=VERTEX_POINT('',#1648);
#538=VERTEX_POINT('',#1650);
#539=VERTEX_POINT('',#1652);
#540=VERTEX_POINT('',#1654);
#541=VERTEX_POINT('',#1658);
#542=VERTEX_POINT('',#1659);
#543=VERTEX_POINT('',#1663);
#544=VERTEX_POINT('',#1664);
#545=VERTEX_POINT('',#1668);
#546=VERTEX_POINT('',#1672);
#547=VERTEX_POINT('',#1674);
#548=VERTEX_POINT('',#1679);
#549=VERTEX_POINT('',#1681);
#550=VERTEX_POINT('',#1686);
#551=VERTEX_POINT('',#1689);
#552=VERTEX_POINT('',#1691);
#553=VERTEX_POINT('',#1694);
#554=VERTEX_POINT('',#1696);
#555=VERTEX_POINT('',#1698);
#556=VERTEX_POINT('',#1700);
#557=VERTEX_POINT('',#1702);
#558=VERTEX_POINT('',#1704);
#559=VERTEX_POINT('',#1706);
#560=VERTEX_POINT('',#1708);
#561=VERTEX_POINT('',#1710);
#562=VERTEX_POINT('',#1714);
#563=VERTEX_POINT('',#1715);
#564=VERTEX_POINT('',#1717);
#565=VERTEX_POINT('',#1719);
#566=VERTEX_POINT('',#1721);
#567=VERTEX_POINT('',#1723);
#568=VERTEX_POINT('',#1727);
#569=VERTEX_POINT('',#1729);
#570=VERTEX_POINT('',#1731);
#571=VERTEX_POINT('',#1733);
#572=VERTEX_POINT('',#1737);
#573=VERTEX_POINT('',#1739);
#574=VERTEX_POINT('',#1741);
#575=VERTEX_POINT('',#1743);
#576=VERTEX_POINT('',#1764);
#577=VERTEX_POINT('',#1765);
#578=VERTEX_POINT('',#1767);
#579=VERTEX_POINT('',#1769);
#580=VERTEX_POINT('',#1773);
#581=VERTEX_POINT('',#1775);
#582=VERTEX_POINT('',#1777);
#583=VERTEX_POINT('',#1779);
#584=VERTEX_POINT('',#1783);
#585=VERTEX_POINT('',#1785);
#586=VERTEX_POINT('',#1789);
#587=VERTEX_POINT('',#1795);
#588=VERTEX_POINT('',#1803);
#589=VERTEX_POINT('',#1804);
#590=VERTEX_POINT('',#1806);
#591=VERTEX_POINT('',#1808);
#592=VERTEX_POINT('',#1812);
#593=VERTEX_POINT('',#1814);
#594=VERTEX_POINT('',#1816);
#595=VERTEX_POINT('',#1818);
#596=VERTEX_POINT('',#1822);
#597=VERTEX_POINT('',#1824);
#598=VERTEX_POINT('',#1828);
#599=VERTEX_POINT('',#1834);
#600=VERTEX_POINT('',#1841);
#601=VERTEX_POINT('',#1843);
#602=VERTEX_POINT('',#1847);
#603=VERTEX_POINT('',#1851);
#604=VERTEX_POINT('',#1855);
#605=VERTEX_POINT('',#1859);
#606=EDGE_CURVE('',#498,#499,#206,.T.);
#607=EDGE_CURVE('',#500,#498,#190,.T.);
#608=EDGE_CURVE('',#501,#500,#207,.T.);
#609=EDGE_CURVE('',#499,#501,#191,.T.);
#610=EDGE_CURVE('',#501,#502,#208,.T.);
#611=EDGE_CURVE('',#502,#503,#209,.T.);
#612=EDGE_CURVE('',#503,#504,#210,.T.);
#613=EDGE_CURVE('',#504,#505,#211,.T.);
#614=EDGE_CURVE('',#505,#506,#212,.T.);
#615=EDGE_CURVE('',#506,#507,#213,.T.);
#616=EDGE_CURVE('',#507,#508,#214,.T.);
#617=EDGE_CURVE('',#508,#509,#215,.T.);
#618=EDGE_CURVE('',#509,#510,#216,.T.);
#619=EDGE_CURVE('',#510,#511,#217,.T.);
#620=EDGE_CURVE('',#511,#512,#192,.T.);
#621=EDGE_CURVE('',#512,#513,#218,.T.);
#622=EDGE_CURVE('',#513,#499,#219,.T.);
#623=EDGE_CURVE('',#514,#514,#193,.T.);
#624=EDGE_CURVE('',#515,#515,#194,.T.);
#625=EDGE_CURVE('',#516,#500,#220,.T.);
#626=EDGE_CURVE('',#516,#517,#221,.T.);
#627=EDGE_CURVE('',#517,#518,#222,.T.);
#628=EDGE_CURVE('',#518,#519,#223,.T.);
#629=EDGE_CURVE('',#520,#519,#224,.T.);
#630=EDGE_CURVE('',#502,#520,#225,.T.);
#631=EDGE_CURVE('',#521,#511,#226,.T.);
#632=EDGE_CURVE('',#522,#521,#195,.T.);
#633=EDGE_CURVE('',#512,#522,#227,.T.);
#634=EDGE_CURVE('',#523,#522,#228,.T.);
#635=EDGE_CURVE('',#513,#523,#229,.T.);
#636=EDGE_CURVE('',#524,#525,#230,.T.);
#637=EDGE_CURVE('',#524,#525,#196,.T.);
#638=EDGE_CURVE('',#514,#526,#231,.T.);
#639=EDGE_CURVE('',#526,#526,#197,.T.);
#640=EDGE_CURVE('',#527,#524,#232,.T.);
#641=EDGE_CURVE('',#528,#527,#198,.T.);
#642=EDGE_CURVE('',#525,#528,#233,.T.);
#643=EDGE_CURVE('',#529,#530,#234,.T.);
#644=EDGE_CURVE('',#531,#529,#199,.T.);
#645=EDGE_CURVE('',#532,#531,#235,.T.);
#646=EDGE_CURVE('',#530,#532,#200,.T.);
#647=EDGE_CURVE('',#530,#532,#236,.T.);
#648=EDGE_CURVE('',#533,#531,#237,.T.);
#649=EDGE_CURVE('',#533,#534,#238,.T.);
#650=EDGE_CURVE('',#535,#534,#239,.T.);
#651=EDGE_CURVE('',#536,#535,#240,.T.);
#652=EDGE_CURVE('',#536,#517,#241,.T.);
#653=EDGE_CURVE('',#529,#516,#242,.T.);
#654=EDGE_CURVE('',#519,#528,#243,.T.);
#655=EDGE_CURVE('',#518,#537,#244,.T.);
#656=EDGE_CURVE('',#537,#538,#245,.T.);
#657=EDGE_CURVE('',#539,#538,#246,.T.);
#658=EDGE_CURVE('',#540,#539,#247,.T.);
#659=EDGE_CURVE('',#527,#540,#248,.T.);
#660=EDGE_CURVE('',#541,#542,#249,.T.);
#661=EDGE_CURVE('',#541,#542,#201,.T.);
#662=EDGE_CURVE('',#543,#544,#250,.T.);
#663=EDGE_CURVE('',#543,#544,#202,.T.);
#664=EDGE_CURVE('',#515,#545,#251,.T.);
#665=EDGE_CURVE('',#545,#545,#203,.T.);
#666=EDGE_CURVE('',#546,#541,#252,.T.);
#667=EDGE_CURVE('',#547,#546,#204,.T.);
#668=EDGE_CURVE('',#542,#547,#253,.T.);
#669=EDGE_CURVE('',#544,#548,#254,.T.);
#670=EDGE_CURVE('',#549,#543,#255,.T.);
#671=EDGE_CURVE('',#548,#549,#205,.T.);
#672=EDGE_CURVE('',#498,#523,#256,.T.);
#673=EDGE_CURVE('',#521,#550,#257,.T.);
#674=EDGE_CURVE('',#550,#547,#258,.T.);
#675=EDGE_CURVE('',#546,#551,#259,.T.);
#676=EDGE_CURVE('',#551,#552,#260,.T.);
#677=EDGE_CURVE('',#552,#548,#261,.T.);
#678=EDGE_CURVE('',#549,#553,#262,.T.);
#679=EDGE_CURVE('',#553,#554,#263,.T.);
#680=EDGE_CURVE('',#554,#555,#264,.T.);
#681=EDGE_CURVE('',#555,#556,#265,.T.);
#682=EDGE_CURVE('',#556,#557,#266,.T.);
#683=EDGE_CURVE('',#557,#558,#267,.T.);
#684=EDGE_CURVE('',#558,#559,#268,.T.);
#685=EDGE_CURVE('',#559,#560,#269,.T.);
#686=EDGE_CURVE('',#560,#561,#270,.T.);
#687=EDGE_CURVE('',#561,#520,#271,.T.);
#688=EDGE_CURVE('',#540,#533,#272,.T.);
#689=EDGE_CURVE('',#562,#563,#273,.T.);
#690=EDGE_CURVE('',#563,#564,#274,.T.);
#691=EDGE_CURVE('',#564,#565,#275,.T.);
#692=EDGE_CURVE('',#565,#566,#276,.T.);
#693=EDGE_CURVE('',#566,#567,#277,.T.);
#694=EDGE_CURVE('',#567,#562,#278,.T.);
#695=EDGE_CURVE('',#568,#550,#279,.T.);
#696=EDGE_CURVE('',#569,#568,#280,.T.);
#697=EDGE_CURVE('',#569,#570,#281,.T.);
#698=EDGE_CURVE('',#571,#570,#282,.T.);
#699=EDGE_CURVE('',#551,#571,#283,.T.);
#700=EDGE_CURVE('',#552,#572,#284,.T.);
#701=EDGE_CURVE('',#573,#572,#285,.T.);
#702=EDGE_CURVE('',#574,#573,#286,.T.);
#703=EDGE_CURVE('',#575,#574,#287,.T.);
#704=EDGE_CURVE('',#553,#575,#288,.T.);
#705=EDGE_CURVE('',#572,#571,#289,.T.);
#706=EDGE_CURVE('',#574,#569,#290,.T.);
#707=EDGE_CURVE('',#570,#573,#291,.T.);
#708=EDGE_CURVE('',#575,#568,#292,.T.);
#709=EDGE_CURVE('',#510,#554,#293,.T.);
#710=EDGE_CURVE('',#537,#536,#294,.T.);
#711=EDGE_CURVE('',#538,#535,#295,.T.);
#712=EDGE_CURVE('',#534,#539,#296,.T.);
#713=EDGE_CURVE('',#576,#577,#297,.T.);
#714=EDGE_CURVE('',#578,#576,#298,.T.);
#715=EDGE_CURVE('',#578,#579,#299,.T.);
#716=EDGE_CURVE('',#577,#579,#300,.T.);
#717=EDGE_CURVE('',#580,#576,#301,.T.);
#718=EDGE_CURVE('',#581,#580,#302,.T.);
#719=EDGE_CURVE('',#581,#582,#303,.T.);
#720=EDGE_CURVE('',#582,#583,#304,.T.);
#721=EDGE_CURVE('',#583,#578,#305,.T.);
#722=EDGE_CURVE('',#584,#581,#306,.T.);
#723=EDGE_CURVE('',#585,#584,#307,.T.);
#724=EDGE_CURVE('',#582,#585,#308,.T.);
#725=EDGE_CURVE('',#586,#585,#309,.T.);
#726=EDGE_CURVE('',#583,#586,#310,.T.);
#727=EDGE_CURVE('',#579,#586,#311,.T.);
#728=EDGE_CURVE('',#577,#587,#312,.T.);
#729=EDGE_CURVE('',#587,#584,#313,.T.);
#730=EDGE_CURVE('',#509,#580,#314,.T.);
#731=EDGE_CURVE('',#508,#556,#315,.T.);
#732=EDGE_CURVE('',#587,#555,#316,.T.);
#733=EDGE_CURVE('',#588,#589,#317,.T.);
#734=EDGE_CURVE('',#590,#588,#318,.T.);
#735=EDGE_CURVE('',#590,#591,#319,.T.);
#736=EDGE_CURVE('',#589,#591,#320,.T.);
#737=EDGE_CURVE('',#592,#588,#321,.T.);
#738=EDGE_CURVE('',#593,#592,#322,.T.);
#739=EDGE_CURVE('',#593,#594,#323,.T.);
#740=EDGE_CURVE('',#594,#595,#324,.T.);
#741=EDGE_CURVE('',#595,#590,#325,.T.);
#742=EDGE_CURVE('',#596,#593,#326,.T.);
#743=EDGE_CURVE('',#597,#596,#327,.T.);
#744=EDGE_CURVE('',#594,#597,#328,.T.);
#745=EDGE_CURVE('',#598,#597,#329,.T.);
#746=EDGE_CURVE('',#595,#598,#330,.T.);
#747=EDGE_CURVE('',#591,#598,#331,.T.);
#748=EDGE_CURVE('',#589,#599,#332,.T.);
#749=EDGE_CURVE('',#599,#596,#333,.T.);
#750=EDGE_CURVE('',#503,#592,#334,.T.);
#751=EDGE_CURVE('',#599,#561,#335,.T.);
#752=EDGE_CURVE('',#564,#600,#336,.T.);
#753=EDGE_CURVE('',#601,#600,#337,.T.);
#754=EDGE_CURVE('',#565,#601,#338,.T.);
#755=EDGE_CURVE('',#563,#602,#339,.T.);
#756=EDGE_CURVE('',#600,#602,#340,.T.);
#757=EDGE_CURVE('',#562,#603,#341,.T.);
#758=EDGE_CURVE('',#602,#603,#342,.T.);
#759=EDGE_CURVE('',#604,#601,#343,.T.);
#760=EDGE_CURVE('',#566,#604,#344,.T.);
#761=EDGE_CURVE('',#605,#604,#345,.T.);
#762=EDGE_CURVE('',#567,#605,#346,.T.);
#763=EDGE_CURVE('',#603,#605,#347,.T.);
#764=EDGE_CURVE('',#558,#506,#348,.T.);
#765=EDGE_CURVE('',#507,#557,#349,.T.);
#766=EDGE_CURVE('',#504,#560,#350,.T.);
#767=EDGE_CURVE('',#505,#559,#351,.T.);
#768=ORIENTED_EDGE('',*,*,#606,.F.);
#769=ORIENTED_EDGE('',*,*,#607,.F.);
#770=ORIENTED_EDGE('',*,*,#608,.F.);
#771=ORIENTED_EDGE('',*,*,#609,.F.);
#772=ORIENTED_EDGE('',*,*,#609,.T.);
#773=ORIENTED_EDGE('',*,*,#610,.T.);
#774=ORIENTED_EDGE('',*,*,#611,.T.);
#775=ORIENTED_EDGE('',*,*,#612,.T.);
#776=ORIENTED_EDGE('',*,*,#613,.T.);
#777=ORIENTED_EDGE('',*,*,#614,.T.);
#778=ORIENTED_EDGE('',*,*,#615,.T.);
#779=ORIENTED_EDGE('',*,*,#616,.T.);
#780=ORIENTED_EDGE('',*,*,#617,.T.);
#781=ORIENTED_EDGE('',*,*,#618,.T.);
#782=ORIENTED_EDGE('',*,*,#619,.T.);
#783=ORIENTED_EDGE('',*,*,#620,.T.);
#784=ORIENTED_EDGE('',*,*,#621,.T.);
#785=ORIENTED_EDGE('',*,*,#622,.T.);
#786=ORIENTED_EDGE('',*,*,#623,.T.);
#787=ORIENTED_EDGE('',*,*,#624,.T.);
#788=ORIENTED_EDGE('',*,*,#608,.T.);
#789=ORIENTED_EDGE('',*,*,#625,.F.);
#790=ORIENTED_EDGE('',*,*,#626,.T.);
#791=ORIENTED_EDGE('',*,*,#627,.T.);
#792=ORIENTED_EDGE('',*,*,#628,.T.);
#793=ORIENTED_EDGE('',*,*,#629,.F.);
#794=ORIENTED_EDGE('',*,*,#630,.F.);
#795=ORIENTED_EDGE('',*,*,#610,.F.);
#796=ORIENTED_EDGE('',*,*,#631,.F.);
#797=ORIENTED_EDGE('',*,*,#632,.F.);
#798=ORIENTED_EDGE('',*,*,#633,.F.);
#799=ORIENTED_EDGE('',*,*,#620,.F.);
#800=ORIENTED_EDGE('',*,*,#633,.T.);
#801=ORIENTED_EDGE('',*,*,#634,.F.);
#802=ORIENTED_EDGE('',*,*,#635,.F.);
#803=ORIENTED_EDGE('',*,*,#621,.F.);
#804=ORIENTED_EDGE('',*,*,#636,.F.);
#805=ORIENTED_EDGE('',*,*,#637,.T.);
#806=ORIENTED_EDGE('',*,*,#623,.F.);
#807=ORIENTED_EDGE('',*,*,#638,.T.);
#808=ORIENTED_EDGE('',*,*,#639,.F.);
#809=ORIENTED_EDGE('',*,*,#638,.F.);
#810=ORIENTED_EDGE('',*,*,#640,.F.);
#811=ORIENTED_EDGE('',*,*,#641,.F.);
#812=ORIENTED_EDGE('',*,*,#642,.F.);
#813=ORIENTED_EDGE('',*,*,#637,.F.);
#814=ORIENTED_EDGE('',*,*,#643,.F.);
#815=ORIENTED_EDGE('',*,*,#644,.F.);
#816=ORIENTED_EDGE('',*,*,#645,.F.);
#817=ORIENTED_EDGE('',*,*,#646,.F.);
#818=ORIENTED_EDGE('',*,*,#639,.T.);
#819=ORIENTED_EDGE('',*,*,#647,.F.);
#820=ORIENTED_EDGE('',*,*,#646,.T.);
#821=ORIENTED_EDGE('',*,*,#643,.T.);
#822=ORIENTED_EDGE('',*,*,#647,.T.);
#823=ORIENTED_EDGE('',*,*,#645,.T.);
#824=ORIENTED_EDGE('',*,*,#648,.F.);
#825=ORIENTED_EDGE('',*,*,#649,.T.);
#826=ORIENTED_EDGE('',*,*,#650,.F.);
#827=ORIENTED_EDGE('',*,*,#651,.F.);
#828=ORIENTED_EDGE('',*,*,#652,.T.);
#829=ORIENTED_EDGE('',*,*,#626,.F.);
#830=ORIENTED_EDGE('',*,*,#653,.F.);
#831=ORIENTED_EDGE('',*,*,#640,.T.);
#832=ORIENTED_EDGE('',*,*,#636,.T.);
#833=ORIENTED_EDGE('',*,*,#642,.T.);
#834=ORIENTED_EDGE('',*,*,#654,.F.);
#835=ORIENTED_EDGE('',*,*,#628,.F.);
#836=ORIENTED_EDGE('',*,*,#655,.T.);
#837=ORIENTED_EDGE('',*,*,#656,.T.);
#838=ORIENTED_EDGE('',*,*,#657,.F.);
#839=ORIENTED_EDGE('',*,*,#658,.F.);
#840=ORIENTED_EDGE('',*,*,#659,.F.);
#841=ORIENTED_EDGE('',*,*,#660,.F.);
#842=ORIENTED_EDGE('',*,*,#661,.T.);
#843=ORIENTED_EDGE('',*,*,#662,.F.);
#844=ORIENTED_EDGE('',*,*,#663,.T.);
#845=ORIENTED_EDGE('',*,*,#624,.F.);
#846=ORIENTED_EDGE('',*,*,#664,.T.);
#847=ORIENTED_EDGE('',*,*,#665,.F.);
#848=ORIENTED_EDGE('',*,*,#664,.F.);
#849=ORIENTED_EDGE('',*,*,#666,.F.);
#850=ORIENTED_EDGE('',*,*,#667,.F.);
#851=ORIENTED_EDGE('',*,*,#668,.F.);
#852=ORIENTED_EDGE('',*,*,#661,.F.);
#853=ORIENTED_EDGE('',*,*,#665,.T.);
#854=ORIENTED_EDGE('',*,*,#669,.F.);
#855=ORIENTED_EDGE('',*,*,#663,.F.);
#856=ORIENTED_EDGE('',*,*,#670,.F.);
#857=ORIENTED_EDGE('',*,*,#671,.F.);
#858=ORIENTED_EDGE('',*,*,#607,.T.);
#859=ORIENTED_EDGE('',*,*,#672,.T.);
#860=ORIENTED_EDGE('',*,*,#634,.T.);
#861=ORIENTED_EDGE('',*,*,#632,.T.);
#862=ORIENTED_EDGE('',*,*,#673,.T.);
#863=ORIENTED_EDGE('',*,*,#674,.T.);
#864=ORIENTED_EDGE('',*,*,#667,.T.);
#865=ORIENTED_EDGE('',*,*,#675,.T.);
#866=ORIENTED_EDGE('',*,*,#676,.T.);
#867=ORIENTED_EDGE('',*,*,#677,.T.);
#868=ORIENTED_EDGE('',*,*,#671,.T.);
#869=ORIENTED_EDGE('',*,*,#678,.T.);
#870=ORIENTED_EDGE('',*,*,#679,.T.);
#871=ORIENTED_EDGE('',*,*,#680,.T.);
#872=ORIENTED_EDGE('',*,*,#681,.T.);
#873=ORIENTED_EDGE('',*,*,#682,.T.);
#874=ORIENTED_EDGE('',*,*,#683,.T.);
#875=ORIENTED_EDGE('',*,*,#684,.T.);
#876=ORIENTED_EDGE('',*,*,#685,.T.);
#877=ORIENTED_EDGE('',*,*,#686,.T.);
#878=ORIENTED_EDGE('',*,*,#687,.T.);
#879=ORIENTED_EDGE('',*,*,#629,.T.);
#880=ORIENTED_EDGE('',*,*,#654,.T.);
#881=ORIENTED_EDGE('',*,*,#641,.T.);
#882=ORIENTED_EDGE('',*,*,#659,.T.);
#883=ORIENTED_EDGE('',*,*,#688,.T.);
#884=ORIENTED_EDGE('',*,*,#648,.T.);
#885=ORIENTED_EDGE('',*,*,#644,.T.);
#886=ORIENTED_EDGE('',*,*,#653,.T.);
#887=ORIENTED_EDGE('',*,*,#625,.T.);
#888=ORIENTED_EDGE('',*,*,#689,.T.);
#889=ORIENTED_EDGE('',*,*,#690,.T.);
#890=ORIENTED_EDGE('',*,*,#691,.T.);
#891=ORIENTED_EDGE('',*,*,#692,.T.);
#892=ORIENTED_EDGE('',*,*,#693,.T.);
#893=ORIENTED_EDGE('',*,*,#694,.T.);
#894=ORIENTED_EDGE('',*,*,#666,.T.);
#895=ORIENTED_EDGE('',*,*,#660,.T.);
#896=ORIENTED_EDGE('',*,*,#668,.T.);
#897=ORIENTED_EDGE('',*,*,#674,.F.);
#898=ORIENTED_EDGE('',*,*,#695,.F.);
#899=ORIENTED_EDGE('',*,*,#696,.F.);
#900=ORIENTED_EDGE('',*,*,#697,.T.);
#901=ORIENTED_EDGE('',*,*,#698,.F.);
#902=ORIENTED_EDGE('',*,*,#699,.F.);
#903=ORIENTED_EDGE('',*,*,#675,.F.);
#904=ORIENTED_EDGE('',*,*,#669,.T.);
#905=ORIENTED_EDGE('',*,*,#677,.F.);
#906=ORIENTED_EDGE('',*,*,#700,.T.);
#907=ORIENTED_EDGE('',*,*,#701,.F.);
#908=ORIENTED_EDGE('',*,*,#702,.F.);
#909=ORIENTED_EDGE('',*,*,#703,.F.);
#910=ORIENTED_EDGE('',*,*,#704,.F.);
#911=ORIENTED_EDGE('',*,*,#678,.F.);
#912=ORIENTED_EDGE('',*,*,#670,.T.);
#913=ORIENTED_EDGE('',*,*,#662,.T.);
#914=ORIENTED_EDGE('',*,*,#676,.F.);
#915=ORIENTED_EDGE('',*,*,#699,.T.);
#916=ORIENTED_EDGE('',*,*,#705,.F.);
#917=ORIENTED_EDGE('',*,*,#700,.F.);
#918=ORIENTED_EDGE('',*,*,#706,.F.);
#919=ORIENTED_EDGE('',*,*,#702,.T.);
#920=ORIENTED_EDGE('',*,*,#707,.F.);
#921=ORIENTED_EDGE('',*,*,#697,.F.);
#922=ORIENTED_EDGE('',*,*,#707,.T.);
#923=ORIENTED_EDGE('',*,*,#701,.T.);
#924=ORIENTED_EDGE('',*,*,#705,.T.);
#925=ORIENTED_EDGE('',*,*,#698,.T.);
#926=ORIENTED_EDGE('',*,*,#708,.F.);
#927=ORIENTED_EDGE('',*,*,#703,.T.);
#928=ORIENTED_EDGE('',*,*,#706,.T.);
#929=ORIENTED_EDGE('',*,*,#696,.T.);
#930=ORIENTED_EDGE('',*,*,#631,.T.);
#931=ORIENTED_EDGE('',*,*,#619,.F.);
#932=ORIENTED_EDGE('',*,*,#709,.T.);
#933=ORIENTED_EDGE('',*,*,#679,.F.);
#934=ORIENTED_EDGE('',*,*,#704,.T.);
#935=ORIENTED_EDGE('',*,*,#708,.T.);
#936=ORIENTED_EDGE('',*,*,#695,.T.);
#937=ORIENTED_EDGE('',*,*,#673,.F.);
#938=ORIENTED_EDGE('',*,*,#627,.F.);
#939=ORIENTED_EDGE('',*,*,#652,.F.);
#940=ORIENTED_EDGE('',*,*,#710,.F.);
#941=ORIENTED_EDGE('',*,*,#655,.F.);
#942=ORIENTED_EDGE('',*,*,#710,.T.);
#943=ORIENTED_EDGE('',*,*,#651,.T.);
#944=ORIENTED_EDGE('',*,*,#711,.F.);
#945=ORIENTED_EDGE('',*,*,#656,.F.);
#946=ORIENTED_EDGE('',*,*,#688,.F.);
#947=ORIENTED_EDGE('',*,*,#658,.T.);
#948=ORIENTED_EDGE('',*,*,#712,.F.);
#949=ORIENTED_EDGE('',*,*,#649,.F.);
#950=ORIENTED_EDGE('',*,*,#650,.T.);
#951=ORIENTED_EDGE('',*,*,#712,.T.);
#952=ORIENTED_EDGE('',*,*,#657,.T.);
#953=ORIENTED_EDGE('',*,*,#711,.T.);
#954=ORIENTED_EDGE('',*,*,#713,.F.);
#955=ORIENTED_EDGE('',*,*,#714,.F.);
#956=ORIENTED_EDGE('',*,*,#715,.T.);
#957=ORIENTED_EDGE('',*,*,#716,.F.);
#958=ORIENTED_EDGE('',*,*,#717,.F.);
#959=ORIENTED_EDGE('',*,*,#718,.F.);
#960=ORIENTED_EDGE('',*,*,#719,.T.);
#961=ORIENTED_EDGE('',*,*,#720,.T.);
#962=ORIENTED_EDGE('',*,*,#721,.T.);
#963=ORIENTED_EDGE('',*,*,#714,.T.);
#964=ORIENTED_EDGE('',*,*,#722,.F.);
#965=ORIENTED_EDGE('',*,*,#723,.F.);
#966=ORIENTED_EDGE('',*,*,#724,.F.);
#967=ORIENTED_EDGE('',*,*,#719,.F.);
#968=ORIENTED_EDGE('',*,*,#724,.T.);
#969=ORIENTED_EDGE('',*,*,#725,.F.);
#970=ORIENTED_EDGE('',*,*,#726,.F.);
#971=ORIENTED_EDGE('',*,*,#720,.F.);
#972=ORIENTED_EDGE('',*,*,#726,.T.);
#973=ORIENTED_EDGE('',*,*,#727,.F.);
#974=ORIENTED_EDGE('',*,*,#715,.F.);
#975=ORIENTED_EDGE('',*,*,#721,.F.);
#976=ORIENTED_EDGE('',*,*,#728,.F.);
#977=ORIENTED_EDGE('',*,*,#716,.T.);
#978=ORIENTED_EDGE('',*,*,#727,.T.);
#979=ORIENTED_EDGE('',*,*,#725,.T.);
#980=ORIENTED_EDGE('',*,*,#723,.T.);
#981=ORIENTED_EDGE('',*,*,#729,.F.);
#982=ORIENTED_EDGE('',*,*,#729,.T.);
#983=ORIENTED_EDGE('',*,*,#722,.T.);
#984=ORIENTED_EDGE('',*,*,#718,.T.);
#985=ORIENTED_EDGE('',*,*,#730,.F.);
#986=ORIENTED_EDGE('',*,*,#617,.F.);
#987=ORIENTED_EDGE('',*,*,#731,.T.);
#988=ORIENTED_EDGE('',*,*,#681,.F.);
#989=ORIENTED_EDGE('',*,*,#732,.F.);
#990=ORIENTED_EDGE('',*,*,#733,.F.);
#991=ORIENTED_EDGE('',*,*,#734,.F.);
#992=ORIENTED_EDGE('',*,*,#735,.T.);
#993=ORIENTED_EDGE('',*,*,#736,.F.);
#994=ORIENTED_EDGE('',*,*,#737,.F.);
#995=ORIENTED_EDGE('',*,*,#738,.F.);
#996=ORIENTED_EDGE('',*,*,#739,.T.);
#997=ORIENTED_EDGE('',*,*,#740,.T.);
#998=ORIENTED_EDGE('',*,*,#741,.T.);
#999=ORIENTED_EDGE('',*,*,#734,.T.);
#1000=ORIENTED_EDGE('',*,*,#742,.F.);
#1001=ORIENTED_EDGE('',*,*,#743,.F.);
#1002=ORIENTED_EDGE('',*,*,#744,.F.);
#1003=ORIENTED_EDGE('',*,*,#739,.F.);
#1004=ORIENTED_EDGE('',*,*,#744,.T.);
#1005=ORIENTED_EDGE('',*,*,#745,.F.);
#1006=ORIENTED_EDGE('',*,*,#746,.F.);
#1007=ORIENTED_EDGE('',*,*,#740,.F.);
#1008=ORIENTED_EDGE('',*,*,#746,.T.);
#1009=ORIENTED_EDGE('',*,*,#747,.F.);
#1010=ORIENTED_EDGE('',*,*,#735,.F.);
#1011=ORIENTED_EDGE('',*,*,#741,.F.);
#1012=ORIENTED_EDGE('',*,*,#748,.F.);
#1013=ORIENTED_EDGE('',*,*,#736,.T.);
#1014=ORIENTED_EDGE('',*,*,#747,.T.);
#1015=ORIENTED_EDGE('',*,*,#745,.T.);
#1016=ORIENTED_EDGE('',*,*,#743,.T.);
#1017=ORIENTED_EDGE('',*,*,#749,.F.);
#1018=ORIENTED_EDGE('',*,*,#749,.T.);
#1019=ORIENTED_EDGE('',*,*,#742,.T.);
#1020=ORIENTED_EDGE('',*,*,#738,.T.);
#1021=ORIENTED_EDGE('',*,*,#750,.F.);
#1022=ORIENTED_EDGE('',*,*,#611,.F.);
#1023=ORIENTED_EDGE('',*,*,#630,.T.);
#1024=ORIENTED_EDGE('',*,*,#687,.F.);
#1025=ORIENTED_EDGE('',*,*,#751,.F.);
#1026=ORIENTED_EDGE('',*,*,#691,.F.);
#1027=ORIENTED_EDGE('',*,*,#752,.T.);
#1028=ORIENTED_EDGE('',*,*,#753,.F.);
#1029=ORIENTED_EDGE('',*,*,#754,.F.);
#1030=ORIENTED_EDGE('',*,*,#690,.F.);
#1031=ORIENTED_EDGE('',*,*,#755,.T.);
#1032=ORIENTED_EDGE('',*,*,#756,.F.);
#1033=ORIENTED_EDGE('',*,*,#752,.F.);
#1034=ORIENTED_EDGE('',*,*,#689,.F.);
#1035=ORIENTED_EDGE('',*,*,#757,.T.);
#1036=ORIENTED_EDGE('',*,*,#758,.F.);
#1037=ORIENTED_EDGE('',*,*,#755,.F.);
#1038=ORIENTED_EDGE('',*,*,#692,.F.);
#1039=ORIENTED_EDGE('',*,*,#754,.T.);
#1040=ORIENTED_EDGE('',*,*,#759,.F.);
#1041=ORIENTED_EDGE('',*,*,#760,.F.);
#1042=ORIENTED_EDGE('',*,*,#693,.F.);
#1043=ORIENTED_EDGE('',*,*,#760,.T.);
#1044=ORIENTED_EDGE('',*,*,#761,.F.);
#1045=ORIENTED_EDGE('',*,*,#762,.F.);
#1046=ORIENTED_EDGE('',*,*,#694,.F.);
#1047=ORIENTED_EDGE('',*,*,#762,.T.);
#1048=ORIENTED_EDGE('',*,*,#763,.F.);
#1049=ORIENTED_EDGE('',*,*,#757,.F.);
#1050=ORIENTED_EDGE('',*,*,#763,.T.);
#1051=ORIENTED_EDGE('',*,*,#761,.T.);
#1052=ORIENTED_EDGE('',*,*,#759,.T.);
#1053=ORIENTED_EDGE('',*,*,#753,.T.);
#1054=ORIENTED_EDGE('',*,*,#756,.T.);
#1055=ORIENTED_EDGE('',*,*,#758,.T.);
#1056=ORIENTED_EDGE('',*,*,#764,.F.);
#1057=ORIENTED_EDGE('',*,*,#683,.F.);
#1058=ORIENTED_EDGE('',*,*,#765,.F.);
#1059=ORIENTED_EDGE('',*,*,#615,.F.);
#1060=ORIENTED_EDGE('',*,*,#765,.T.);
#1061=ORIENTED_EDGE('',*,*,#682,.F.);
#1062=ORIENTED_EDGE('',*,*,#731,.F.);
#1063=ORIENTED_EDGE('',*,*,#616,.F.);
#1064=ORIENTED_EDGE('',*,*,#728,.T.);
#1065=ORIENTED_EDGE('',*,*,#732,.T.);
#1066=ORIENTED_EDGE('',*,*,#680,.F.);
#1067=ORIENTED_EDGE('',*,*,#709,.F.);
#1068=ORIENTED_EDGE('',*,*,#618,.F.);
#1069=ORIENTED_EDGE('',*,*,#730,.T.);
#1070=ORIENTED_EDGE('',*,*,#717,.T.);
#1071=ORIENTED_EDGE('',*,*,#713,.T.);
#1072=ORIENTED_EDGE('',*,*,#606,.T.);
#1073=ORIENTED_EDGE('',*,*,#622,.F.);
#1074=ORIENTED_EDGE('',*,*,#635,.T.);
#1075=ORIENTED_EDGE('',*,*,#672,.F.);
#1076=ORIENTED_EDGE('',*,*,#748,.T.);
#1077=ORIENTED_EDGE('',*,*,#751,.T.);
#1078=ORIENTED_EDGE('',*,*,#686,.F.);
#1079=ORIENTED_EDGE('',*,*,#766,.F.);
#1080=ORIENTED_EDGE('',*,*,#612,.F.);
#1081=ORIENTED_EDGE('',*,*,#750,.T.);
#1082=ORIENTED_EDGE('',*,*,#737,.T.);
#1083=ORIENTED_EDGE('',*,*,#733,.T.);
#1084=ORIENTED_EDGE('',*,*,#766,.T.);
#1085=ORIENTED_EDGE('',*,*,#685,.F.);
#1086=ORIENTED_EDGE('',*,*,#767,.F.);
#1087=ORIENTED_EDGE('',*,*,#613,.F.);
#1088=ORIENTED_EDGE('',*,*,#767,.T.);
#1089=ORIENTED_EDGE('',*,*,#684,.F.);
#1090=ORIENTED_EDGE('',*,*,#764,.T.);
#1091=ORIENTED_EDGE('',*,*,#614,.F.);
#1092=CYLINDRICAL_SURFACE('',#1173,280.);
#1093=CYLINDRICAL_SURFACE('',#1181,280.);
#1094=CYLINDRICAL_SURFACE('',#1186,360.);
#1095=CYLINDRICAL_SURFACE('',#1188,360.);
#1096=CYLINDRICAL_SURFACE('',#1190,360.);
#1097=CYLINDRICAL_SURFACE('',#1201,360.);
#1098=CYLINDRICAL_SURFACE('',#1203,360.);
#1099=CYLINDRICAL_SURFACE('',#1206,360.);
#1100=ADVANCED_FACE('',(#69),#1092,.F.);
#1101=ADVANCED_FACE('',(#70,#15,#16),#18,.T.);
#1102=ADVANCED_FACE('',(#71),#19,.T.);
#1103=ADVANCED_FACE('',(#72),#1093,.F.);
#1104=ADVANCED_FACE('',(#73),#20,.T.);
#1105=ADVANCED_FACE('',(#74),#21,.T.);
#1106=ADVANCED_FACE('',(#75),#1094,.T.);
#1107=ADVANCED_FACE('',(#76),#1095,.T.);
#1108=ADVANCED_FACE('',(#77),#1096,.T.);
#1109=ADVANCED_FACE('',(#78),#22,.F.);
#1110=ADVANCED_FACE('',(#79),#23,.T.);
#1111=ADVANCED_FACE('',(#80),#24,.T.);
#1112=ADVANCED_FACE('',(#81),#25,.T.);
#1113=ADVANCED_FACE('',(#82),#26,.T.);
#1114=ADVANCED_FACE('',(#83),#27,.T.);
#1115=ADVANCED_FACE('',(#84),#1097,.T.);
#1116=ADVANCED_FACE('',(#85),#1098,.T.);
#1117=ADVANCED_FACE('',(#86),#28,.F.);
#1118=ADVANCED_FACE('',(#87),#1099,.T.);
#1119=ADVANCED_FACE('',(#88,#17),#29,.T.);
#1120=ADVANCED_FACE('',(#89),#30,.T.);
#1121=ADVANCED_FACE('',(#90),#31,.T.);
#1122=ADVANCED_FACE('',(#91),#32,.T.);
#1123=ADVANCED_FACE('',(#92),#33,.T.);
#1124=ADVANCED_FACE('',(#93),#34,.T.);
#1125=ADVANCED_FACE('',(#94),#35,.F.);
#1126=ADVANCED_FACE('',(#95),#36,.T.);
#1127=ADVANCED_FACE('',(#96),#37,.F.);
#1128=ADVANCED_FACE('',(#97),#38,.T.);
#1129=ADVANCED_FACE('',(#98),#39,.T.);
#1130=ADVANCED_FACE('',(#99),#40,.T.);
#1131=ADVANCED_FACE('',(#100),#41,.T.);
#1132=ADVANCED_FACE('',(#101),#42,.T.);
#1133=ADVANCED_FACE('',(#102),#43,.T.);
#1134=ADVANCED_FACE('',(#103),#44,.T.);
#1135=ADVANCED_FACE('',(#104),#45,.T.);
#1136=ADVANCED_FACE('',(#105),#46,.T.);
#1137=ADVANCED_FACE('',(#106),#47,.T.);
#1138=ADVANCED_FACE('',(#107),#48,.T.);
#1139=ADVANCED_FACE('',(#108),#49,.T.);
#1140=ADVANCED_FACE('',(#109),#50,.T.);
#1141=ADVANCED_FACE('',(#110),#51,.T.);
#1142=ADVANCED_FACE('',(#111),#52,.T.);
#1143=ADVANCED_FACE('',(#112),#53,.T.);
#1144=ADVANCED_FACE('',(#113),#54,.T.);
#1145=ADVANCED_FACE('',(#114),#55,.T.);
#1146=ADVANCED_FACE('',(#115),#56,.T.);
#1147=ADVANCED_FACE('',(#116),#57,.T.);
#1148=ADVANCED_FACE('',(#117),#58,.T.);
#1149=ADVANCED_FACE('',(#118),#59,.T.);
#1150=ADVANCED_FACE('',(#119),#60,.T.);
#1151=ADVANCED_FACE('',(#120),#61,.T.);
#1152=ADVANCED_FACE('',(#121),#62,.T.);
#1153=ADVANCED_FACE('',(#122),#63,.T.);
#1154=ADVANCED_FACE('',(#123),#64,.T.);
#1155=ADVANCED_FACE('',(#124),#65,.T.);
#1156=ADVANCED_FACE('',(#125),#66,.T.);
#1157=ADVANCED_FACE('',(#126),#67,.T.);
#1158=ADVANCED_FACE('',(#127),#68,.T.);
#1159=CLOSED_SHELL('',(#1100,#1101,#1102,#1103,#1104,#1105,#1106,#1107,
#1108,#1109,#1110,#1111,#1112,#1113,#1114,#1115,#1116,#1117,#1118,#1119,
#1120,#1121,#1122,#1123,#1124,#1125,#1126,#1127,#1128,#1129,#1130,#1131,
#1132,#1133,#1134,#1135,#1136,#1137,#1138,#1139,#1140,#1141,#1142,#1143,
#1144,#1145,#1146,#1147,#1148,#1149,#1150,#1151,#1152,#1153,#1154,#1155,
#1156,#1157,#1158));
#1160=DERIVED_UNIT_ELEMENT(#1162,1.);
#1161=DERIVED_UNIT_ELEMENT(#1881,-3.);
#1162=(
MASS_UNIT()
NAMED_UNIT(*)
SI_UNIT(.KILO.,.GRAM.)
);
#1163=DERIVED_UNIT((#1160,#1161));
#1164=MEASURE_REPRESENTATION_ITEM('density measure',
POSITIVE_RATIO_MEASURE(7850.),#1163);
#1165=PROPERTY_DEFINITION_REPRESENTATION(#1170,#1167);
#1166=PROPERTY_DEFINITION_REPRESENTATION(#1171,#1168);
#1167=REPRESENTATION('material name',(#1169),#1878);
#1168=REPRESENTATION('density',(#1164),#1878);
#1169=DESCRIPTIVE_REPRESENTATION_ITEM('Steel','Steel');
#1170=PROPERTY_DEFINITION('material property','material name',#1888);
#1171=PROPERTY_DEFINITION('material property','density of part',#1888);
#1172=AXIS2_PLACEMENT_3D('',#1546,#1248,#1249);
#1173=AXIS2_PLACEMENT_3D('',#1547,#1250,#1251);
#1174=AXIS2_PLACEMENT_3D('',#1552,#1253,#1254);
#1175=AXIS2_PLACEMENT_3D('',#1555,#1256,#1257);
#1176=AXIS2_PLACEMENT_3D('',#1556,#1258,#1259);
#1177=AXIS2_PLACEMENT_3D('',#1578,#1270,#1271);
#1178=AXIS2_PLACEMENT_3D('',#1583,#1274,#1275);
#1179=AXIS2_PLACEMENT_3D('',#1585,#1276,#1277);
#1180=AXIS2_PLACEMENT_3D('',#1586,#1278,#1279);
#1181=AXIS2_PLACEMENT_3D('',#1598,#1286,#1287);
#1182=AXIS2_PLACEMENT_3D('',#1602,#1289,#1290);
#1183=AXIS2_PLACEMENT_3D('',#1604,#1292,#1293);
#1184=AXIS2_PLACEMENT_3D('',#1608,#1296,#1297);
#1185=AXIS2_PLACEMENT_3D('',#1612,#1299,#1300);
#1186=AXIS2_PLACEMENT_3D('',#1613,#1301,#1302);
#1187=AXIS2_PLACEMENT_3D('',#1616,#1304,#1305);
#1188=AXIS2_PLACEMENT_3D('',#1617,#1306,#1307);
#1189=AXIS2_PLACEMENT_3D('',#1621,#1309,#1310);
#1190=AXIS2_PLACEMENT_3D('',#1623,#1312,#1313);
#1191=AXIS2_PLACEMENT_3D('',#1628,#1315,#1316);
#1192=AXIS2_PLACEMENT_3D('',#1631,#1318,#1319);
#1193=AXIS2_PLACEMENT_3D('',#1632,#1320,#1321);
#1194=AXIS2_PLACEMENT_3D('',#1633,#1322,#1323);
#1195=AXIS2_PLACEMENT_3D('',#1635,#1325,#1326);
#1196=AXIS2_PLACEMENT_3D('',#1646,#1333,#1334);
#1197=AXIS2_PLACEMENT_3D('',#1657,#1341,#1342);
#1198=AXIS2_PLACEMENT_3D('',#1661,#1344,#1345);
#1199=AXIS2_PLACEMENT_3D('',#1662,#1346,#1347);
#1200=AXIS2_PLACEMENT_3D('',#1666,#1349,#1350);
#1201=AXIS2_PLACEMENT_3D('',#1667,#1351,#1352);
#1202=AXIS2_PLACEMENT_3D('',#1670,#1354,#1355);
#1203=AXIS2_PLACEMENT_3D('',#1671,#1356,#1357);
#1204=AXIS2_PLACEMENT_3D('',#1675,#1359,#1360);
#1205=AXIS2_PLACEMENT_3D('',#1677,#1362,#1363);
#1206=AXIS2_PLACEMENT_3D('',#1678,#1364,#1365);
#1207=AXIS2_PLACEMENT_3D('',#1683,#1368,#1369);
#1208=AXIS2_PLACEMENT_3D('',#1684,#1370,#1371);
#1209=AXIS2_PLACEMENT_3D('',#1726,#1395,#1396);
#1210=AXIS2_PLACEMENT_3D('',#1736,#1402,#1403);
#1211=AXIS2_PLACEMENT_3D('',#1746,#1409,#1410);
#1212=AXIS2_PLACEMENT_3D('',#1748,#1412,#1413);
#1213=AXIS2_PLACEMENT_3D('',#1751,#1416,#1417);
#1214=AXIS2_PLACEMENT_3D('',#1752,#1418,#1419);
#1215=AXIS2_PLACEMENT_3D('',#1754,#1421,#1422);
#1216=AXIS2_PLACEMENT_3D('',#1756,#1424,#1425);
#1217=AXIS2_PLACEMENT_3D('',#1758,#1427,#1428);
#1218=AXIS2_PLACEMENT_3D('',#1760,#1430,#1431);
#1219=AXIS2_PLACEMENT_3D('',#1762,#1433,#1434);
#1220=AXIS2_PLACEMENT_3D('',#1763,#1435,#1436);
#1221=AXIS2_PLACEMENT_3D('',#1772,#1441,#1442);
#1222=AXIS2_PLACEMENT_3D('',#1782,#1448,#1449);
#1223=AXIS2_PLACEMENT_3D('',#1788,#1453,#1454);
#1224=AXIS2_PLACEMENT_3D('',#1792,#1457,#1458);
#1225=AXIS2_PLACEMENT_3D('',#1794,#1460,#1461);
#1226=AXIS2_PLACEMENT_3D('',#1798,#1464,#1465);
#1227=AXIS2_PLACEMENT_3D('',#1802,#1469,#1470);
#1228=AXIS2_PLACEMENT_3D('',#1811,#1475,#1476);
#1229=AXIS2_PLACEMENT_3D('',#1821,#1482,#1483);
#1230=AXIS2_PLACEMENT_3D('',#1827,#1487,#1488);
#1231=AXIS2_PLACEMENT_3D('',#1831,#1491,#1492);
#1232=AXIS2_PLACEMENT_3D('',#1833,#1494,#1495);
#1233=AXIS2_PLACEMENT_3D('',#1837,#1498,#1499);
#1234=AXIS2_PLACEMENT_3D('',#1840,#1502,#1503);
#1235=AXIS2_PLACEMENT_3D('',#1846,#1507,#1508);
#1236=AXIS2_PLACEMENT_3D('',#1850,#1511,#1512);
#1237=AXIS2_PLACEMENT_3D('',#1854,#1515,#1516);
#1238=AXIS2_PLACEMENT_3D('',#1858,#1519,#1520);
#1239=AXIS2_PLACEMENT_3D('',#1862,#1523,#1524);
#1240=AXIS2_PLACEMENT_3D('',#1864,#1526,#1527);
#1241=AXIS2_PLACEMENT_3D('',#1865,#1528,#1529);
#1242=AXIS2_PLACEMENT_3D('',#1868,#1532,#1533);
#1243=AXIS2_PLACEMENT_3D('',#1869,#1534,#1535);
#1244=AXIS2_PLACEMENT_3D('',#1870,#1536,#1537);
#1245=AXIS2_PLACEMENT_3D('',#1871,#1538,#1539);
#1246=AXIS2_PLACEMENT_3D('',#1873,#1541,#1542);
#1247=AXIS2_PLACEMENT_3D('',#1875,#1544,#1545);
#1248=DIRECTION('axis',(0.,0.,1.));
#1249=DIRECTION('refdir',(1.,0.,0.));
#1250=DIRECTION('center_axis',(0.,0.,1.));
#1251=DIRECTION('ref_axis',(1.,0.,0.));
#1252=DIRECTION('',(0.,0.,-1.));
#1253=DIRECTION('center_axis',(0.,0.,-1.));
#1254=DIRECTION('ref_axis',(1.,0.,0.));
#1255=DIRECTION('',(0.,0.,1.));
#1256=DIRECTION('center_axis',(0.,0.,1.));
#1257=DIRECTION('ref_axis',(1.,0.,0.));
#1258=DIRECTION('center_axis',(0.,0.,-1.));
#1259=DIRECTION('ref_axis',(-1.,0.,0.));
#1260=DIRECTION('',(-0.400818834019708,0.916157334902189,0.));
#1261=DIRECTION('',(-0.0384331221012044,0.999261174631314,0.));
#1262=DIRECTION('',(0.187112107889995,0.982338566422475,0.));
#1263=DIRECTION('',(0.230466383879213,0.973080287490009,0.));
#1264=DIRECTION('',(0.295683728071131,0.955285890691346,0.));
#1265=DIRECTION('',(0.295683728071131,-0.955285890691346,0.));
#1266=DIRECTION('',(0.230466383879213,-0.973080287490009,0.));
#1267=DIRECTION('',(0.187112107889995,-0.982338566422475,0.));
#1268=DIRECTION('',(-0.0384331221012044,-0.999261174631314,0.));
#1269=DIRECTION('',(-0.400818834019708,-0.916157334902189,0.));
#1270=DIRECTION('center_axis',(0.,0.,1.));
#1271=DIRECTION('ref_axis',(1.,0.,0.));
#1272=DIRECTION('',(-0.919145030018058,0.393919298579168,0.));
#1273=DIRECTION('',(-0.919145030018058,-0.393919298579168,0.));
#1274=DIRECTION('center_axis',(0.,0.,1.));
#1275=DIRECTION('ref_axis',(1.,0.,0.));
#1276=DIRECTION('center_axis',(0.,0.,1.));
#1277=DIRECTION('ref_axis',(1.,0.,0.));
#1278=DIRECTION('center_axis',(-0.916157334902189,-0.400818834019708,0.));
#1279=DIRECTION('ref_axis',(0.400818834019708,-0.916157334902189,0.));
#1280=DIRECTION('',(0.400818834019708,-0.916157334902189,0.));
#1281=DIRECTION('',(0.,0.,-1.));
#1282=DIRECTION('',(-0.400818834019708,0.916157334902189,0.));
#1283=DIRECTION('',(0.,0.,1.));
#1284=DIRECTION('',(0.400818834019708,-0.916157334902189,0.));
#1285=DIRECTION('',(0.,0.,1.));
#1286=DIRECTION('center_axis',(0.,0.,1.));
#1287=DIRECTION('ref_axis',(-0.900533035985118,0.434787593083595,0.));
#1288=DIRECTION('',(0.,0.,-1.));
#1289=DIRECTION('center_axis',(0.,0.,-1.));
#1290=DIRECTION('ref_axis',(1.,0.,0.));
#1291=DIRECTION('',(0.,0.,1.));
#1292=DIRECTION('center_axis',(-0.393919298579168,-0.919145030018058,0.));
#1293=DIRECTION('ref_axis',(0.919145030018058,-0.393919298579168,0.));
#1294=DIRECTION('',(0.919145030018058,-0.393919298579168,0.));
#1295=DIRECTION('',(0.,0.,1.));
#1296=DIRECTION('center_axis',(0.,0.,1.));
#1297=DIRECTION('ref_axis',(1.,0.,0.));
#1298=DIRECTION('',(0.,-1.,0.));
#1299=DIRECTION('center_axis',(0.,0.,1.));
#1300=DIRECTION('ref_axis',(1.,0.,0.));
#1301=DIRECTION('center_axis',(0.,0.,1.));
#1302=DIRECTION('ref_axis',(1.,0.,0.));
#1303=DIRECTION('',(0.,0.,-1.));
#1304=DIRECTION('center_axis',(0.,0.,-1.));
#1305=DIRECTION('ref_axis',(1.,0.,0.));
#1306=DIRECTION('center_axis',(0.,0.,1.));
#1307=DIRECTION('ref_axis',(-1.,1.22464679914735E-16,0.));
#1308=DIRECTION('',(0.,0.,1.));
#1309=DIRECTION('center_axis',(0.,0.,-1.));
#1310=DIRECTION('ref_axis',(1.,0.,0.));
#1311=DIRECTION('',(0.,0.,-1.));
#1312=DIRECTION('center_axis',(0.,0.,1.));
#1313=DIRECTION('ref_axis',(1.,0.,0.));
#1314=DIRECTION('',(0.,0.,1.));
#1315=DIRECTION('center_axis',(0.,0.,-1.));
#1316=DIRECTION('ref_axis',(1.,0.,0.));
#1317=DIRECTION('',(0.,0.,-1.));
#1318=DIRECTION('center_axis',(0.,0.,1.));
#1319=DIRECTION('ref_axis',(1.,0.,0.));
#1320=DIRECTION('center_axis',(0.,0.,1.));
#1321=DIRECTION('ref_axis',(1.,0.,0.));
#1322=DIRECTION('center_axis',(0.,0.,1.));
#1323=DIRECTION('ref_axis',(1.,0.,0.));
#1324=DIRECTION('',(0.,1.,0.));
#1325=DIRECTION('center_axis',(1.,0.,0.));
#1326=DIRECTION('ref_axis',(0.,1.,0.));
#1327=DIRECTION('',(0.,-1.,0.));
#1328=DIRECTION('',(0.,0.,1.));
#1329=DIRECTION('',(0.,1.,0.));
#1330=DIRECTION('',(0.,0.,1.));
#1331=DIRECTION('',(0.,1.,0.));
#1332=DIRECTION('',(0.,-1.,0.));
#1333=DIRECTION('center_axis',(-1.,0.,0.));
#1334=DIRECTION('ref_axis',(0.,-1.,0.));
#1335=DIRECTION('',(0.,1.,0.));
#1336=DIRECTION('',(0.,-1.,0.));
#1337=DIRECTION('',(0.,0.,1.));
#1338=DIRECTION('',(0.,-1.,0.));
#1339=DIRECTION('',(0.,0.,1.));
#1340=DIRECTION('',(0.,1.,0.));
#1341=DIRECTION('center_axis',(0.,0.,1.));
#1342=DIRECTION('ref_axis',(1.,0.,0.));
#1343=DIRECTION('',(0.,-1.,0.));
#1344=DIRECTION('center_axis',(0.,0.,1.));
#1345=DIRECTION('ref_axis',(1.,0.,0.));
#1346=DIRECTION('center_axis',(0.,0.,1.));
#1347=DIRECTION('ref_axis',(1.,0.,0.));
#1348=DIRECTION('',(0.,1.,0.));
#1349=DIRECTION('center_axis',(0.,0.,1.));
#1350=DIRECTION('ref_axis',(1.,0.,0.));
#1351=DIRECTION('center_axis',(0.,0.,1.));
#1352=DIRECTION('ref_axis',(1.,0.,0.));
#1353=DIRECTION('',(0.,0.,-1.));
#1354=DIRECTION('center_axis',(0.,0.,-1.));
#1355=DIRECTION('ref_axis',(1.,0.,0.));
#1356=DIRECTION('center_axis',(0.,0.,1.));
#1357=DIRECTION('ref_axis',(-1.,-3.21624529935327E-16,0.));
#1358=DIRECTION('',(0.,0.,1.));
#1359=DIRECTION('center_axis',(0.,0.,-1.));
#1360=DIRECTION('ref_axis',(1.,0.,0.));
#1361=DIRECTION('',(0.,0.,-1.));
#1362=DIRECTION('center_axis',(0.,0.,1.));
#1363=DIRECTION('ref_axis',(1.,0.,0.));
#1364=DIRECTION('center_axis',(0.,0.,1.));
#1365=DIRECTION('ref_axis',(1.,0.,0.));
#1366=DIRECTION('',(0.,0.,-1.));
#1367=DIRECTION('',(0.,0.,1.));
#1368=DIRECTION('center_axis',(0.,0.,-1.));
#1369=DIRECTION('ref_axis',(1.,0.,0.));
#1370=DIRECTION('center_axis',(0.,0.,1.));
#1371=DIRECTION('ref_axis',(1.,0.,0.));
#1372=DIRECTION('',(0.919145030018058,0.393919298579168,0.));
#1373=DIRECTION('',(0.400818834019708,0.916157334902189,0.));
#1374=DIRECTION('',(0.,1.,0.));
#1375=DIRECTION('',(0.,1.,0.));
#1376=DIRECTION('',(1.,0.,0.));
#1377=DIRECTION('',(0.,-1.,0.));
#1378=DIRECTION('',(0.,-1.,0.));
#1379=DIRECTION('',(0.400818834019708,0.916157334902189,0.));
#1380=DIRECTION('',(0.0384331221012044,0.999261174631314,0.));
#1381=DIRECTION('',(-0.187112107889995,0.982338566422475,0.));
#1382=DIRECTION('',(-0.230466383879213,0.973080287490009,0.));
#1383=DIRECTION('',(-0.295683728071131,0.955285890691346,0.));
#1384=DIRECTION('',(-0.295683728071131,-0.955285890691346,0.));
#1385=DIRECTION('',(-0.230466383879213,-0.973080287490009,0.));
#1386=DIRECTION('',(-0.187112107889995,-0.982338566422475,0.));
#1387=DIRECTION('',(0.0384331221012044,-0.999261174631314,0.));
#1388=DIRECTION('',(1.,0.,0.));
#1389=DIRECTION('',(0.242535625036333,-0.970142500145332,0.));
#1390=DIRECTION('',(-0.0411416075262023,-0.999153325636341,0.));
#1391=DIRECTION('',(-0.784882765533426,-0.619644288579021,0.));
#1392=DIRECTION('',(-0.784882765533426,0.619644288579021,0.));
#1393=DIRECTION('',(-0.0411416075262023,0.999153325636341,0.));
#1394=DIRECTION('',(0.242535625036333,0.970142500145332,0.));
#1395=DIRECTION('center_axis',(-1.,0.,0.));
#1396=DIRECTION('ref_axis',(0.,-1.,0.));
#1397=DIRECTION('',(0.,0.,1.));
#1398=DIRECTION('',(0.,1.,0.));
#1399=DIRECTION('',(0.,0.,1.));
#1400=DIRECTION('',(0.,-1.,0.));
#1401=DIRECTION('',(0.,0.,1.));
#1402=DIRECTION('center_axis',(1.,0.,0.));
#1403=DIRECTION('ref_axis',(0.,1.,0.));
#1404=DIRECTION('',(0.,0.,1.));
#1405=DIRECTION('',(0.,1.,0.));
#1406=DIRECTION('',(0.,0.,1.));
#1407=DIRECTION('',(0.,-1.,0.));
#1408=DIRECTION('',(0.,0.,-1.));
#1409=DIRECTION('center_axis',(0.,1.,0.));
#1410=DIRECTION('ref_axis',(-1.,0.,0.));
#1411=DIRECTION('',(-1.,0.,0.));
#1412=DIRECTION('center_axis',(0.,-1.,0.));
#1413=DIRECTION('ref_axis',(1.,0.,0.));
#1414=DIRECTION('',(-1.,0.,0.));
#1415=DIRECTION('',(1.,0.,0.));
#1416=DIRECTION('center_axis',(0.,0.,1.));
#1417=DIRECTION('ref_axis',(1.,0.,0.));
#1418=DIRECTION('center_axis',(0.,0.,1.));
#1419=DIRECTION('ref_axis',(1.,0.,0.));
#1420=DIRECTION('',(-0.400818834019708,-0.916157334902189,0.));
#1421=DIRECTION('center_axis',(0.916157334902189,-0.400818834019708,0.));
#1422=DIRECTION('ref_axis',(0.400818834019708,0.916157334902189,0.));
#1423=DIRECTION('',(0.,0.,1.));
#1424=DIRECTION('center_axis',(0.,0.,1.));
#1425=DIRECTION('ref_axis',(1.,0.,0.));
#1426=DIRECTION('',(1.,0.,0.));
#1427=DIRECTION('center_axis',(0.,-1.,0.));
#1428=DIRECTION('ref_axis',(1.,0.,0.));
#1429=DIRECTION('',(1.,0.,0.));
#1430=DIRECTION('center_axis',(0.,1.,0.));
#1431=DIRECTION('ref_axis',(-1.,0.,0.));
#1432=DIRECTION('',(-1.,0.,0.));
#1433=DIRECTION('center_axis',(0.,0.,1.));
#1434=DIRECTION('ref_axis',(1.,0.,0.));
#1435=DIRECTION('center_axis',(-0.132163720091018,-0.991227900682635,0.));
#1436=DIRECTION('ref_axis',(0.991227900682635,-0.132163720091018,0.));
#1437=DIRECTION('',(0.,0.,1.));
#1438=DIRECTION('',(-0.991227900682635,0.132163720091018,0.));
#1439=DIRECTION('',(0.,0.,1.));
#1440=DIRECTION('',(0.991227900682635,-0.132163720091018,0.));
#1441=DIRECTION('center_axis',(0.,0.,-1.));
#1442=DIRECTION('ref_axis',(-1.,0.,0.));
#1443=DIRECTION('',(-0.0384331221012044,-0.999261174631314,0.));
#1444=DIRECTION('',(0.187112107889995,-0.982338566422475,0.));
#1445=DIRECTION('',(0.,1.,0.));
#1446=DIRECTION('',(0.717900393451055,-0.69614583607375,0.));
#1447=DIRECTION('',(-0.351123441588392,-0.936329177569045,0.));
#1448=DIRECTION('center_axis',(-1.,0.,0.));
#1449=DIRECTION('ref_axis',(0.,-1.,0.));
#1450=DIRECTION('',(0.,0.,-1.));
#1451=DIRECTION('',(0.,-1.,0.));
#1452=DIRECTION('',(0.,0.,1.));
#1453=DIRECTION('center_axis',(0.69614583607375,0.717900393451055,0.));
#1454=DIRECTION('ref_axis',(-0.717900393451055,0.69614583607375,0.));
#1455=DIRECTION('',(-0.717900393451055,0.69614583607375,0.));
#1456=DIRECTION('',(0.,0.,1.));
#1457=DIRECTION('center_axis',(0.936329177569045,-0.351123441588392,0.));
#1458=DIRECTION('ref_axis',(0.351123441588392,0.936329177569045,0.));
#1459=DIRECTION('',(0.351123441588392,0.936329177569045,0.));
#1460=DIRECTION('center_axis',(0.,0.,1.));
#1461=DIRECTION('ref_axis',(1.,0.,0.));
#1462=DIRECTION('',(0.0384331221012044,0.999261174631314,0.));
#1463=DIRECTION('',(-0.187112107889995,0.982338566422475,0.));
#1464=DIRECTION('center_axis',(0.982338566422475,0.187112107889995,0.));
#1465=DIRECTION('ref_axis',(-0.187112107889995,0.982338566422475,0.));
#1466=DIRECTION('',(0.,0.,1.));
#1467=DIRECTION('',(0.,0.,1.));
#1468=DIRECTION('',(0.,0.,1.));
#1469=DIRECTION('center_axis',(1.,0.,0.));
#1470=DIRECTION('ref_axis',(0.,1.,0.));
#1471=DIRECTION('',(0.,0.,1.));
#1472=DIRECTION('',(0.,-1.,0.));
#1473=DIRECTION('',(0.,0.,1.));
#1474=DIRECTION('',(0.,1.,0.));
#1475=DIRECTION('center_axis',(0.,0.,-1.));
#1476=DIRECTION('ref_axis',(-1.,0.,0.));
#1477=DIRECTION('',(0.187112107889995,0.982338566422475,0.));
#1478=DIRECTION('',(-0.0384331221012044,0.999261174631314,0.));
#1479=DIRECTION('',(-0.991227900682635,-0.132163720091018,0.));
#1480=DIRECTION('',(-0.351123441588392,0.936329177569045,0.));
#1481=DIRECTION('',(0.717900393451055,0.69614583607375,0.));
#1482=DIRECTION('center_axis',(0.132163720091018,-0.991227900682635,0.));
#1483=DIRECTION('ref_axis',(0.991227900682635,0.132163720091018,0.));
#1484=DIRECTION('',(0.,0.,-1.));
#1485=DIRECTION('',(0.991227900682635,0.132163720091018,0.));
#1486=DIRECTION('',(0.,0.,1.));
#1487=DIRECTION('center_axis',(-0.936329177569045,-0.351123441588392,0.));
#1488=DIRECTION('ref_axis',(0.351123441588392,-0.936329177569045,0.));
#1489=DIRECTION('',(0.351123441588392,-0.936329177569045,0.));
#1490=DIRECTION('',(0.,0.,1.));
#1491=DIRECTION('center_axis',(-0.69614583607375,0.717900393451055,0.));
#1492=DIRECTION('ref_axis',(-0.717900393451055,-0.69614583607375,0.));
#1493=DIRECTION('',(-0.717900393451055,-0.69614583607375,0.));
#1494=DIRECTION('center_axis',(0.,0.,1.));
#1495=DIRECTION('ref_axis',(1.,0.,0.));
#1496=DIRECTION('',(-0.187112107889995,-0.982338566422475,0.));
#1497=DIRECTION('',(0.0384331221012044,-0.999261174631314,0.));
#1498=DIRECTION('center_axis',(-0.999261174631314,-0.0384331221012044,0.));
#1499=DIRECTION('ref_axis',(0.0384331221012044,-0.999261174631314,0.));
#1500=DIRECTION('',(0.,0.,1.));
#1501=DIRECTION('',(0.,0.,1.));
#1502=DIRECTION('center_axis',(0.619644288579021,-0.784882765533426,0.));
#1503=DIRECTION('ref_axis',(0.784882765533426,0.619644288579021,0.));
#1504=DIRECTION('',(0.,0.,1.));
#1505=DIRECTION('',(0.784882765533426,0.619644288579021,0.));
#1506=DIRECTION('',(0.,0.,1.));
#1507=DIRECTION('center_axis',(0.999153325636341,-0.0411416075262023,0.));
#1508=DIRECTION('ref_axis',(0.0411416075262023,0.999153325636341,0.));
#1509=DIRECTION('',(0.,0.,1.));
#1510=DIRECTION('',(0.0411416075262023,0.999153325636341,0.));
#1511=DIRECTION('center_axis',(0.970142500145332,0.242535625036333,0.));
#1512=DIRECTION('ref_axis',(-0.242535625036333,0.970142500145332,0.));
#1513=DIRECTION('',(0.,0.,1.));
#1514=DIRECTION('',(-0.242535625036333,0.970142500145332,0.));
#1515=DIRECTION('center_axis',(-0.619644288579021,-0.784882765533426,0.));
#1516=DIRECTION('ref_axis',(0.784882765533426,-0.619644288579021,0.));
#1517=DIRECTION('',(0.784882765533426,-0.619644288579021,0.));
#1518=DIRECTION('',(0.,0.,1.));
#1519=DIRECTION('center_axis',(-0.999153325636341,-0.0411416075262023,0.));
#1520=DIRECTION('ref_axis',(0.0411416075262023,-0.999153325636341,0.));
#1521=DIRECTION('',(0.0411416075262023,-0.999153325636341,0.));
#1522=DIRECTION('',(0.,0.,1.));
#1523=DIRECTION('center_axis',(-0.970142500145332,0.242535625036333,0.));
#1524=DIRECTION('ref_axis',(-0.242535625036333,-0.970142500145332,0.));
#1525=DIRECTION('',(-0.242535625036333,-0.970142500145332,0.));
#1526=DIRECTION('center_axis',(0.,0.,1.));
#1527=DIRECTION('ref_axis',(1.,0.,0.));
#1528=DIRECTION('center_axis',(0.955285890691346,0.295683728071131,0.));
#1529=DIRECTION('ref_axis',(-0.295683728071131,0.955285890691346,0.));
#1530=DIRECTION('',(0.,0.,-1.));
#1531=DIRECTION('',(0.,0.,1.));
#1532=DIRECTION('center_axis',(0.973080287490009,0.230466383879213,0.));
#1533=DIRECTION('ref_axis',(-0.230466383879213,0.973080287490009,0.));
#1534=DIRECTION('center_axis',(0.999261174631314,-0.0384331221012044,0.));
#1535=DIRECTION('ref_axis',(0.0384331221012044,0.999261174631314,0.));
#1536=DIRECTION('center_axis',(0.393919298579168,-0.919145030018058,0.));
#1537=DIRECTION('ref_axis',(0.919145030018058,0.393919298579168,0.));
#1538=DIRECTION('center_axis',(-0.982338566422475,0.187112107889995,0.));
#1539=DIRECTION('ref_axis',(-0.187112107889995,-0.982338566422475,0.));
#1540=DIRECTION('',(0.,0.,1.));
#1541=DIRECTION('center_axis',(-0.973080287490009,0.230466383879213,0.));
#1542=DIRECTION('ref_axis',(-0.230466383879213,-0.973080287490009,0.));
#1543=DIRECTION('',(0.,0.,1.));
#1544=DIRECTION('center_axis',(-0.955285890691346,0.295683728071131,0.));
#1545=DIRECTION('ref_axis',(-0.295683728071131,-0.955285890691346,0.));
#1546=CARTESIAN_POINT('',(0.,0.,0.));
#1547=CARTESIAN_POINT('Origin',(-950.,-4700.,0.));
#1548=CARTESIAN_POINT('',(-686.295249771977,-4794.12653561656,110.));
#1549=CARTESIAN_POINT('',(-686.295249771977,-4794.12653561656,-110.));
#1550=CARTESIAN_POINT('',(-686.295249771977,-4794.12653561656,0.));
#1551=CARTESIAN_POINT('',(-859.705592977793,-4434.95864462219,110.));
#1552=CARTESIAN_POINT('Origin',(-950.,-4700.,110.));
#1553=CARTESIAN_POINT('',(-859.705592977793,-4434.95864462219,-110.));
#1554=CARTESIAN_POINT('',(-859.705592977793,-4434.95864462219,0.));
#1555=CARTESIAN_POINT('Origin',(-950.,-4700.,-110.));
#1556=CARTESIAN_POINT('Origin',(0.,350.,-110.));
#1557=CARTESIAN_POINT('',(-1400.,-3200.,-110.));
#1558=CARTESIAN_POINT('',(-1400.,-3200.,-110.));
#1559=CARTESIAN_POINT('',(-1500.,-600.,-110.));
#1560=CARTESIAN_POINT('',(-1500.,-600.,-110.));
#1561=CARTESIAN_POINT('',(-1100.,1500.,-110.));
#1562=CARTESIAN_POINT('',(-1100.,1500.,-110.));
#1563=CARTESIAN_POINT('',(-650.,3400.,-110.));
#1564=CARTESIAN_POINT('',(-650.,3400.,-110.));
#1565=CARTESIAN_POINT('',(0.,5500.,-110.));
#1566=CARTESIAN_POINT('',(0.,5500.,-110.));
#1567=CARTESIAN_POINT('',(650.,3400.,-110.));
#1568=CARTESIAN_POINT('',(0.,5500.,-110.));
#1569=CARTESIAN_POINT('',(1100.,1500.,-110.));
#1570=CARTESIAN_POINT('',(650.,3400.,-110.));
#1571=CARTESIAN_POINT('',(1500.,-600.,-110.));
#1572=CARTESIAN_POINT('',(1100.,1500.,-110.));
#1573=CARTESIAN_POINT('',(1400.,-3200.,-110.));
#1574=CARTESIAN_POINT('',(1500.,-600.,-110.));
#1575=CARTESIAN_POINT('',(859.705592977793,-4434.95864462219,-110.));
#1576=CARTESIAN_POINT('',(1400.,-3200.,-110.));
#1577=CARTESIAN_POINT('',(686.295249771977,-4794.12653561656,-110.));
#1578=CARTESIAN_POINT('Origin',(950.,-4700.,-110.));
#1579=CARTESIAN_POINT('',(0.,-4500.,-110.));
#1580=CARTESIAN_POINT('',(700.,-4800.,-110.));
#1581=CARTESIAN_POINT('',(-700.,-4800.,-110.));
#1582=CARTESIAN_POINT('',(-1310.,-3200.,-110.));
#1583=CARTESIAN_POINT('Origin',(-950.,-3200.,-110.));
#1584=CARTESIAN_POINT('',(590.,-3200.,-110.));
#1585=CARTESIAN_POINT('Origin',(950.,-3200.,-110.));
#1586=CARTESIAN_POINT('Origin',(-1400.,-3200.,0.));
#1587=CARTESIAN_POINT('',(-1100.,-3885.71428571429,110.));
#1588=CARTESIAN_POINT('',(-1400.,-3200.,110.));
#1589=CARTESIAN_POINT('',(-1100.,-3885.71428571429,0.));
#1590=CARTESIAN_POINT('',(-1100.,-3885.71428571429,0.));
#1591=CARTESIAN_POINT('',(-1250.,-3542.85714285714,0.));
#1592=CARTESIAN_POINT('',(-1400.2868852459,-3199.34426229508,0.));
#1593=CARTESIAN_POINT('',(-1250.,-3542.85714285714,110.));
#1594=CARTESIAN_POINT('',(-1250.,-3542.85714285714,0.));
#1595=CARTESIAN_POINT('',(-1400.,-3200.,110.));
#1596=CARTESIAN_POINT('',(-1400.,-3200.,110.));
#1597=CARTESIAN_POINT('',(-1400.,-3200.,0.));
#1598=CARTESIAN_POINT('Origin',(950.,-4700.,0.));
#1599=CARTESIAN_POINT('',(859.705592977793,-4434.95864462219,110.));
#1600=CARTESIAN_POINT('',(859.705592977793,-4434.95864462219,0.));
#1601=CARTESIAN_POINT('',(686.295249771977,-4794.12653561656,110.));
#1602=CARTESIAN_POINT('Origin',(950.,-4700.,110.));
#1603=CARTESIAN_POINT('',(686.295249771977,-4794.12653561656,0.));
#1604=CARTESIAN_POINT('Origin',(1.4210854715202E-13,-4500.,0.));
#1605=CARTESIAN_POINT('',(0.,-4500.,110.));
#1606=CARTESIAN_POINT('',(700.,-4800.,110.));
#1607=CARTESIAN_POINT('',(0.,-4500.,0.));
#1608=CARTESIAN_POINT('Origin',(-950.,-3200.,140.));
#1609=CARTESIAN_POINT('',(-1250.,-3001.00251257868,140.));
#1610=CARTESIAN_POINT('',(-1250.,-3398.99748742132,140.));
#1611=CARTESIAN_POINT('',(-1250.,-2600.,140.));
#1612=CARTESIAN_POINT('Origin',(-950.,-3200.,140.));
#1613=CARTESIAN_POINT('Origin',(-950.,-3200.,0.));
#1614=CARTESIAN_POINT('',(-1310.,-3200.,-140.));
#1615=CARTESIAN_POINT('',(-1310.,-3200.,0.));
#1616=CARTESIAN_POINT('Origin',(-950.,-3200.,-140.));
#1617=CARTESIAN_POINT('Origin',(-950.,-3200.,0.));
#1618=CARTESIAN_POINT('',(-1250.,-3001.00251257868,110.));
#1619=CARTESIAN_POINT('',(-1250.,-3001.00251257868,0.));
#1620=CARTESIAN_POINT('',(-1250.,-3398.99748742132,110.));
#1621=CARTESIAN_POINT('Origin',(-950.,-3200.,110.));
#1622=CARTESIAN_POINT('',(-1250.,-3398.99748742132,0.));
#1623=CARTESIAN_POINT('Origin',(-950.,-3200.,0.));
#1624=CARTESIAN_POINT('',(-1100.,-3527.26136343907,110.));
#1625=CARTESIAN_POINT('',(-1100.,-3527.26136343907,140.));
#1626=CARTESIAN_POINT('',(-1100.,-3527.26136343907,0.));
#1627=CARTESIAN_POINT('',(-1100.,-2872.73863656093,110.));
#1628=CARTESIAN_POINT('Origin',(-950.,-3200.,110.));
#1629=CARTESIAN_POINT('',(-1100.,-2872.73863656093,140.));
#1630=CARTESIAN_POINT('',(-1100.,-2872.73863656093,0.));
#1631=CARTESIAN_POINT('Origin',(-950.,-3200.,140.));
#1632=CARTESIAN_POINT('Origin',(-950.,-3200.,-140.));
#1633=CARTESIAN_POINT('Origin',(-950.,-3200.,140.));
#1634=CARTESIAN_POINT('',(-1100.,-3700.,140.));
#1635=CARTESIAN_POINT('Origin',(-1100.,-4200.,0.));
#1636=CARTESIAN_POINT('',(-1100.,-2000.,110.));
#1637=CARTESIAN_POINT('',(-1100.,-1925.,110.));
#1638=CARTESIAN_POINT('',(-1100.,-2000.,1100.));
#1639=CARTESIAN_POINT('',(-1100.,-2000.,0.));
#1640=CARTESIAN_POINT('',(-1100.,-4200.,1100.));
#1641=CARTESIAN_POINT('',(-1100.,-4200.,1100.));
#1642=CARTESIAN_POINT('',(-1100.,-4200.,0.));
#1643=CARTESIAN_POINT('',(-1100.,-4200.,0.));
#1644=CARTESIAN_POINT('',(-1100.,-4200.,0.));
#1645=CARTESIAN_POINT('',(-1100.,-1925.,110.));
#1646=CARTESIAN_POINT('Origin',(-1250.,-2000.,0.));
#1647=CARTESIAN_POINT('',(-1250.,-825.,110.));
#1648=CARTESIAN_POINT('',(-1250.,-4200.,0.));
#1649=CARTESIAN_POINT('',(-1250.,-2000.,0.));
#1650=CARTESIAN_POINT('',(-1250.,-4200.,1100.));
#1651=CARTESIAN_POINT('',(-1250.,-4200.,0.));
#1652=CARTESIAN_POINT('',(-1250.,-2000.,1100.));
#1653=CARTESIAN_POINT('',(-1250.,-2000.,1100.));
#1654=CARTESIAN_POINT('',(-1250.,-2000.,110.));
#1655=CARTESIAN_POINT('',(-1250.,-2000.,0.));
#1656=CARTESIAN_POINT('',(-1250.,-825.,110.));
#1657=CARTESIAN_POINT('Origin',(950.,-3200.,140.));
#1658=CARTESIAN_POINT('',(1100.,-2872.73863656093,140.));
#1659=CARTESIAN_POINT('',(1100.,-3527.26136343907,140.));
#1660=CARTESIAN_POINT('',(1100.,-2600.,140.));
#1661=CARTESIAN_POINT('Origin',(950.,-3200.,140.));
#1662=CARTESIAN_POINT('Origin',(950.,-3200.,140.));
#1663=CARTESIAN_POINT('',(1250.,-3398.99748742132,140.));
#1664=CARTESIAN_POINT('',(1250.,-3001.00251257868,140.));
#1665=CARTESIAN_POINT('',(1250.,-3700.,140.));
#1666=CARTESIAN_POINT('Origin',(950.,-3200.,140.));
#1667=CARTESIAN_POINT('Origin',(950.,-3200.,0.));
#1668=CARTESIAN_POINT('',(590.,-3200.,-140.));
#1669=CARTESIAN_POINT('',(590.,-3200.,0.));
#1670=CARTESIAN_POINT('Origin',(950.,-3200.,-140.));
#1671=CARTESIAN_POINT('Origin',(950.,-3200.,0.));
#1672=CARTESIAN_POINT('',(1100.,-2872.73863656093,110.));
#1673=CARTESIAN_POINT('',(1100.,-2872.73863656093,0.));
#1674=CARTESIAN_POINT('',(1100.,-3527.26136343907,110.));
#1675=CARTESIAN_POINT('Origin',(950.,-3200.,110.));
#1676=CARTESIAN_POINT('',(1100.,-3527.26136343907,0.));
#1677=CARTESIAN_POINT('Origin',(950.,-3200.,-140.));
#1678=CARTESIAN_POINT('Origin',(950.,-3200.,0.));
#1679=CARTESIAN_POINT('',(1250.,-3001.00251257868,110.));
#1680=CARTESIAN_POINT('',(1250.,-3001.00251257868,0.));
#1681=CARTESIAN_POINT('',(1250.,-3398.99748742132,110.));
#1682=CARTESIAN_POINT('',(1250.,-3398.99748742132,0.));
#1683=CARTESIAN_POINT('Origin',(950.,-3200.,110.));
#1684=CARTESIAN_POINT('Origin',(0.,350.,110.));
#1685=CARTESIAN_POINT('',(-700.,-4800.,110.));
#1686=CARTESIAN_POINT('',(1100.,-3885.71428571429,110.));
#1687=CARTESIAN_POINT('',(1400.,-3200.,110.));
#1688=CARTESIAN_POINT('',(1100.,-825.,110.));
#1689=CARTESIAN_POINT('',(1100.,-2000.,110.));
#1690=CARTESIAN_POINT('',(1100.,-825.,110.));
#1691=CARTESIAN_POINT('',(1250.,-2000.,110.));
#1692=CARTESIAN_POINT('',(625.,-2000.,110.));
#1693=CARTESIAN_POINT('',(1250.,-1925.,110.));
#1694=CARTESIAN_POINT('',(1250.,-3542.85714285714,110.));
#1695=CARTESIAN_POINT('',(1250.,-1925.,110.));
#1696=CARTESIAN_POINT('',(1400.,-3200.,110.));
#1697=CARTESIAN_POINT('',(1400.,-3200.,110.));
#1698=CARTESIAN_POINT('',(1500.,-600.,110.));
#1699=CARTESIAN_POINT('',(1500.,-600.,110.));
#1700=CARTESIAN_POINT('',(1100.,1500.,110.));
#1701=CARTESIAN_POINT('',(1100.,1500.,110.));
#1702=CARTESIAN_POINT('',(650.,3400.,110.));
#1703=CARTESIAN_POINT('',(650.,3400.,110.));
#1704=CARTESIAN_POINT('',(0.,5500.,110.));
#1705=CARTESIAN_POINT('',(0.,5500.,110.));
#1706=CARTESIAN_POINT('',(-650.,3400.,110.));
#1707=CARTESIAN_POINT('',(0.,5500.,110.));
#1708=CARTESIAN_POINT('',(-1100.,1500.,110.));
#1709=CARTESIAN_POINT('',(-650.,3400.,110.));
#1710=CARTESIAN_POINT('',(-1500.,-600.,110.));
#1711=CARTESIAN_POINT('',(-1100.,1500.,110.));
#1712=CARTESIAN_POINT('',(-1500.,-600.,110.));
#1713=CARTESIAN_POINT('',(-550.,-2000.,110.));
#1714=CARTESIAN_POINT('',(0.,3200.,110.));
#1715=CARTESIAN_POINT('',(450.,1400.,110.));
#1716=CARTESIAN_POINT('',(560.294117647059,958.823529411765,110.));
#1717=CARTESIAN_POINT('',(380.,-300.,110.));
#1718=CARTESIAN_POINT('',(393.038101488825,16.6396075857543,110.));
#1719=CARTESIAN_POINT('',(0.,-600.,110.));
#1720=CARTESIAN_POINT('',(231.015358361775,-417.619453924915,110.));
#1721=CARTESIAN_POINT('',(-380.,-300.,110.));
#1722=CARTESIAN_POINT('',(-421.015358361775,-267.619453924915,110.));
#1723=CARTESIAN_POINT('',(-450.,1400.,110.));
#1724=CARTESIAN_POINT('',(-428.038101488825,866.639607585754,110.));
#1725=CARTESIAN_POINT('',(-335.294117647059,1858.82352941176,110.));
#1726=CARTESIAN_POINT('Origin',(1100.,-2000.,0.));
#1727=CARTESIAN_POINT('',(1100.,-3885.71428571429,0.));
#1728=CARTESIAN_POINT('',(1100.,-3885.71428571429,0.));
#1729=CARTESIAN_POINT('',(1100.,-4200.,0.));
#1730=CARTESIAN_POINT('',(1100.,-4200.,0.));
#1731=CARTESIAN_POINT('',(1100.,-4200.,1100.));
#1732=CARTESIAN_POINT('',(1100.,-4200.,0.));
#1733=CARTESIAN_POINT('',(1100.,-2000.,1100.));
#1734=CARTESIAN_POINT('',(1100.,-4200.,1100.));
#1735=CARTESIAN_POINT('',(1100.,-2000.,0.));
#1736=CARTESIAN_POINT('Origin',(1250.,-4200.,0.));
#1737=CARTESIAN_POINT('',(1250.,-2000.,1100.));
#1738=CARTESIAN_POINT('',(1250.,-2000.,0.));
#1739=CARTESIAN_POINT('',(1250.,-4200.,1100.));
#1740=CARTESIAN_POINT('',(1250.,-2000.,1100.));
#1741=CARTESIAN_POINT('',(1250.,-4200.,0.));
#1742=CARTESIAN_POINT('',(1250.,-4200.,0.));
#1743=CARTESIAN_POINT('',(1250.,-3542.85714285714,0.));
#1744=CARTESIAN_POINT('',(1250.,-2000.,0.));
#1745=CARTESIAN_POINT('',(1250.,-3542.85714285714,0.));
#1746=CARTESIAN_POINT('Origin',(1250.,-2000.,0.));
#1747=CARTESIAN_POINT('',(1100.,-2000.,1100.));
#1748=CARTESIAN_POINT('Origin',(1100.,-4200.,0.));
#1749=CARTESIAN_POINT('',(1250.,-4200.,0.));
#1750=CARTESIAN_POINT('',(1250.,-4200.,1100.));
#1751=CARTESIAN_POINT('Origin',(1175.,-3100.,1100.));
#1752=CARTESIAN_POINT('Origin',(1175.,-3100.,0.));
#1753=CARTESIAN_POINT('',(1050.2868852459,-3999.34426229508,0.));
#1754=CARTESIAN_POINT('Origin',(700.,-4800.,0.));
#1755=CARTESIAN_POINT('',(1400.,-3200.,0.));
#1756=CARTESIAN_POINT('Origin',(-1175.,-3100.,0.));
#1757=CARTESIAN_POINT('',(-1250.,-4200.,0.));
#1758=CARTESIAN_POINT('Origin',(-1250.,-4200.,0.));
#1759=CARTESIAN_POINT('',(-1250.,-4200.,1100.));
#1760=CARTESIAN_POINT('Origin',(-1100.,-2000.,0.));
#1761=CARTESIAN_POINT('',(-1100.,-2000.,1100.));
#1762=CARTESIAN_POINT('Origin',(-1175.,-3100.,1100.));
#1763=CARTESIAN_POINT('Origin',(1300.,-3000.,0.));
#1764=CARTESIAN_POINT('',(1407.14285714286,-3014.28571428571,-30.));
#1765=CARTESIAN_POINT('',(1407.14285714286,-3014.28571428571,30.));
#1766=CARTESIAN_POINT('',(1407.14285714286,-3014.28571428571,0.));
#1767=CARTESIAN_POINT('',(4300.,-3400.,-30.));
#1768=CARTESIAN_POINT('',(4300.,-3400.,-30.));
#1769=CARTESIAN_POINT('',(4300.,-3400.,30.));
#1770=CARTESIAN_POINT('',(4300.,-3400.,0.));
#1771=CARTESIAN_POINT('',(4300.,-3400.,30.));
#1772=CARTESIAN_POINT('Origin',(2950.,-1400.,-30.));
#1773=CARTESIAN_POINT('',(1500.,-600.,-30.));
#1774=CARTESIAN_POINT('',(1435.70901033973,-2271.56573116691,-30.));
#1775=CARTESIAN_POINT('',(1300.,450.000000000001,-30.));
#1776=CARTESIAN_POINT('',(1598.90590809628,-1119.25601750547,-30.));
#1777=CARTESIAN_POINT('',(1300.,600.,-30.));
#1778=CARTESIAN_POINT('',(1300.,-3000.,-30.));
#1779=CARTESIAN_POINT('',(4600.,-2600.,-30.));
#1780=CARTESIAN_POINT('',(1300.,600.,-30.));
#1781=CARTESIAN_POINT('',(4600.,-2600.,-30.));
#1782=CARTESIAN_POINT('Origin',(1300.,600.,0.));
#1783=CARTESIAN_POINT('',(1300.,450.000000000001,30.));
#1784=CARTESIAN_POINT('',(1300.,450.,0.));
#1785=CARTESIAN_POINT('',(1300.,600.,30.));
#1786=CARTESIAN_POINT('',(1300.,-3000.,30.));
#1787=CARTESIAN_POINT('',(1300.,600.,0.));
#1788=CARTESIAN_POINT('Origin',(4600.,-2600.,0.));
#1789=CARTESIAN_POINT('',(4600.,-2600.,30.));
#1790=CARTESIAN_POINT('',(1300.,600.,30.));
#1791=CARTESIAN_POINT('',(4600.,-2600.,0.));
#1792=CARTESIAN_POINT('Origin',(4300.,-3400.,0.));
#1793=CARTESIAN_POINT('',(4600.,-2600.,30.));
#1794=CARTESIAN_POINT('Origin',(2950.,-1400.,30.));
#1795=CARTESIAN_POINT('',(1500.,-600.,30.));
#1796=CARTESIAN_POINT('',(1435.70901033973,-2271.56573116691,30.));
#1797=CARTESIAN_POINT('',(1598.90590809628,-1119.25601750547,30.));
#1798=CARTESIAN_POINT('Origin',(1500.,-600.,0.));
#1799=CARTESIAN_POINT('',(1500.,-600.,0.));
#1800=CARTESIAN_POINT('',(1100.,1500.,0.));
#1801=CARTESIAN_POINT('',(1500.,-600.,0.));
#1802=CARTESIAN_POINT('Origin',(-1300.,-3000.,0.));
#1803=CARTESIAN_POINT('',(-1300.,450.000000000001,-30.));
#1804=CARTESIAN_POINT('',(-1300.,450.000000000001,30.));
#1805=CARTESIAN_POINT('',(-1300.,450.,0.));
#1806=CARTESIAN_POINT('',(-1300.,600.,-30.));
#1807=CARTESIAN_POINT('',(-1300.,-3000.,-30.));
#1808=CARTESIAN_POINT('',(-1300.,600.,30.));
#1809=CARTESIAN_POINT('',(-1300.,600.,0.));
#1810=CARTESIAN_POINT('',(-1300.,-3000.,30.));
#1811=CARTESIAN_POINT('Origin',(-2950.,-1400.,-30.));
#1812=CARTESIAN_POINT('',(-1500.,-600.,-30.));
#1813=CARTESIAN_POINT('',(-1398.90590809628,-69.2560175054705,-30.));
#1814=CARTESIAN_POINT('',(-1407.14285714286,-3014.28571428571,-30.));
#1815=CARTESIAN_POINT('',(-1485.70901033973,-971.565731166913,-30.));
#1816=CARTESIAN_POINT('',(-4300.,-3400.,-30.));
#1817=CARTESIAN_POINT('',(-4300.,-3400.,-30.));
#1818=CARTESIAN_POINT('',(-4600.,-2600.,-30.));
#1819=CARTESIAN_POINT('',(-4600.,-2600.,-30.));
#1820=CARTESIAN_POINT('',(-1300.,600.,-30.));
#1821=CARTESIAN_POINT('Origin',(-4300.,-3400.,0.));
#1822=CARTESIAN_POINT('',(-1407.14285714286,-3014.28571428571,30.));
#1823=CARTESIAN_POINT('',(-1407.14285714286,-3014.28571428571,0.));
#1824=CARTESIAN_POINT('',(-4300.,-3400.,30.));
#1825=CARTESIAN_POINT('',(-4300.,-3400.,30.));
#1826=CARTESIAN_POINT('',(-4300.,-3400.,0.));
#1827=CARTESIAN_POINT('Origin',(-4600.,-2600.,0.));
#1828=CARTESIAN_POINT('',(-4600.,-2600.,30.));
#1829=CARTESIAN_POINT('',(-4600.,-2600.,30.));
#1830=CARTESIAN_POINT('',(-4600.,-2600.,0.));
#1831=CARTESIAN_POINT('Origin',(-1300.,600.,0.));
#1832=CARTESIAN_POINT('',(-1300.,600.,30.));
#1833=CARTESIAN_POINT('Origin',(-2950.,-1400.,30.));
#1834=CARTESIAN_POINT('',(-1500.,-600.,30.));
#1835=CARTESIAN_POINT('',(-1398.90590809628,-69.2560175054705,30.));
#1836=CARTESIAN_POINT('',(-1485.70901033973,-971.565731166913,30.));
#1837=CARTESIAN_POINT('Origin',(-1500.,-600.,0.));
#1838=CARTESIAN_POINT('',(-1500.,-600.,0.));
#1839=CARTESIAN_POINT('',(-1500.,-600.,0.));
#1840=CARTESIAN_POINT('Origin',(0.,-600.,0.));
#1841=CARTESIAN_POINT('',(380.,-300.,420.));
#1842=CARTESIAN_POINT('',(380.,-300.,0.));
#1843=CARTESIAN_POINT('',(0.,-600.,420.));
#1844=CARTESIAN_POINT('',(380.,-300.,420.));
#1845=CARTESIAN_POINT('',(0.,-600.,0.));
#1846=CARTESIAN_POINT('Origin',(380.,-300.,0.));
#1847=CARTESIAN_POINT('',(450.,1400.,420.));
#1848=CARTESIAN_POINT('',(450.,1400.,0.));
#1849=CARTESIAN_POINT('',(450.,1400.,420.));
#1850=CARTESIAN_POINT('Origin',(450.,1400.,0.));
#1851=CARTESIAN_POINT('',(0.,3200.,420.));
#1852=CARTESIAN_POINT('',(0.,3200.,0.));
#1853=CARTESIAN_POINT('',(0.,3200.,420.));
#1854=CARTESIAN_POINT('Origin',(-380.,-300.,0.));
#1855=CARTESIAN_POINT('',(-380.,-300.,420.));
#1856=CARTESIAN_POINT('',(-380.,-300.,420.));
#1857=CARTESIAN_POINT('',(-380.,-300.,0.));
#1858=CARTESIAN_POINT('Origin',(-450.,1400.,0.));
#1859=CARTESIAN_POINT('',(-450.,1400.,420.));
#1860=CARTESIAN_POINT('',(-450.,1400.,420.));
#1861=CARTESIAN_POINT('',(-450.,1400.,0.));
#1862=CARTESIAN_POINT('Origin',(0.,3200.,0.));
#1863=CARTESIAN_POINT('',(0.,3200.,420.));
#1864=CARTESIAN_POINT('Origin',(0.,1300.,420.));
#1865=CARTESIAN_POINT('Origin',(650.,3400.,0.));
#1866=CARTESIAN_POINT('',(0.,5500.,0.));
#1867=CARTESIAN_POINT('',(650.,3400.,0.));
#1868=CARTESIAN_POINT('Origin',(1100.,1500.,0.));
#1869=CARTESIAN_POINT('Origin',(1400.,-3200.,0.));
#1870=CARTESIAN_POINT('Origin',(-700.,-4800.,0.));
#1871=CARTESIAN_POINT('Origin',(-1100.,1500.,0.));
#1872=CARTESIAN_POINT('',(-1100.,1500.,0.));
#1873=CARTESIAN_POINT('Origin',(-650.,3400.,0.));
#1874=CARTESIAN_POINT('',(-650.,3400.,0.));
#1875=CARTESIAN_POINT('Origin',(0.,5500.,0.));
#1876=UNCERTAINTY_MEASURE_WITH_UNIT(LENGTH_MEASURE(0.01),#1880,
'DISTANCE_ACCURACY_VALUE',
'Maximum model space distance between geometric entities at asserted c
onnectivities');
#1877=UNCERTAINTY_MEASURE_WITH_UNIT(LENGTH_MEASURE(0.01),#1880,
'DISTANCE_ACCURACY_VALUE',
'Maximum model space distance between geometric entities at asserted c
onnectivities');
#1878=(
GEOMETRIC_REPRESENTATION_CONTEXT(3)
GLOBAL_UNCERTAINTY_ASSIGNED_CONTEXT((#1876))
GLOBAL_UNIT_ASSIGNED_CONTEXT((#1880,#1882,#1883))
REPRESENTATION_CONTEXT('','3D')
);
#1879=(
GEOMETRIC_REPRESENTATION_CONTEXT(3)
GLOBAL_UNCERTAINTY_ASSIGNED_CONTEXT((#1877))
GLOBAL_UNIT_ASSIGNED_CONTEXT((#1880,#1882,#1883))
REPRESENTATION_CONTEXT('','3D')
);
#1880=(
LENGTH_UNIT()
NAMED_UNIT(*)
SI_UNIT(.MILLI.,.METRE.)
);
#1881=(
LENGTH_UNIT()
NAMED_UNIT(*)
SI_UNIT($,.METRE.)
);
#1882=(
NAMED_UNIT(*)
PLANE_ANGLE_UNIT()
SI_UNIT($,.RADIAN.)
);
#1883=(
NAMED_UNIT(*)
SI_UNIT($,.STERADIAN.)
SOLID_ANGLE_UNIT()
);
#1884=SHAPE_DEFINITION_REPRESENTATION(#1885,#1886);
#1885=PRODUCT_DEFINITION_SHAPE('',$,#1888);
#1886=SHAPE_REPRESENTATION('',(#1172),#1878);
#1887=PRODUCT_DEFINITION_CONTEXT('part definition',#1892,'design');
#1888=PRODUCT_DEFINITION('2026-09-18-22-00-40-681','(Unsaved)',#1889,#1887);
#1889=PRODUCT_DEFINITION_FORMATION('',$,#1894);
#1890=PRODUCT_RELATED_PRODUCT_CATEGORY('(Unsaved)','(Unsaved)',(#1894));
#1891=APPLICATION_PROTOCOL_DEFINITION('international standard',
'automotive_design',2009,#1892);
#1892=APPLICATION_CONTEXT(
'Core Data for Automotive Mechanical Design Process');
#1893=PRODUCT_CONTEXT('part definition',#1892,'mechanical');
#1894=PRODUCT('2026-09-18-22-00-40-681','(Unsaved)',$,(#1893));
#1895=PRESENTATION_STYLE_ASSIGNMENT((#1896));
#1896=SURFACE_STYLE_USAGE(.BOTH.,#1897);
#1897=SURFACE_SIDE_STYLE('',(#1898));
#1898=SURFACE_STYLE_FILL_AREA(#1899);
#1899=FILL_AREA_STYLE('Steel - Satin',(#1900));
#1900=FILL_AREA_STYLE_COLOUR('Steel - Satin',#1901);
#1901=COLOUR_RGB('Steel - Satin',0.627450980392157,0.627450980392157,0.627450980392157);
ENDSEC;
END-ISO-10303-21;
